<svg id="test" version="1.1"
	 xmlns="http://www.w3.org/2000/svg" xmlns:xlink="http://www.w3.org/1999/xlink" xmlns:a="http://ns.adobe.com/AdobeSVGViewerExtensions/3.0/"
	 x="0px" y="0px" width="184.5px" height="72.5px" viewBox="0 0 184.5 72.5" style="enable-background:new 0 0 184.5 72.5;"
	 xml:space="preserve">
<style type="text/css">
	.st0{fill:#FFFFFF;}
	.st1{fill:#EAA533;}
</style>
<g>
	<g>
		<g>
			<g>
				<g>
					<path class="st0" d="M74.1,33.8c-0.5-0.4-1.1-0.7-1.9-0.8c-0.7-0.2-1.5-0.3-2.3-0.3l-5.1,0l0,16.1l2.9,0l0-6.8l2.1,0
						c0.8,0,1.6-0.1,2.3-0.3c0.7-0.2,1.4-0.5,1.9-0.8c0.5-0.4,1-0.9,1.3-1.5c0.3-0.6,0.5-1.3,0.5-2.1c0-0.8-0.1-1.5-0.4-2.1
						C75.1,34.7,74.6,34.2,74.1,33.8z M67.7,35.2l2,0c0.5,0,0.9,0,1.3,0.1c0.4,0.1,0.7,0.2,1,0.4c0.3,0.2,0.5,0.4,0.6,0.6
						c0.1,0.3,0.2,0.6,0.2,1c0,0.4-0.1,0.7-0.2,1c-0.1,0.3-0.3,0.5-0.6,0.6c-0.3,0.2-0.6,0.3-1,0.4c-0.4,0.1-0.9,0.1-1.4,0.1
						c0,0,0,0,0,0l-1.9,0L67.7,35.2z"/>
					<path class="st0" d="M104.2,34.7c-0.8-0.7-1.7-1.3-2.7-1.7c-1-0.4-2.2-0.6-3.4-0.6c0,0,0,0,0,0c-1.2,0-2.3,0.2-3.4,0.6
						c-1,0.4-1.9,1-2.7,1.7c-0.8,0.7-1.4,1.6-1.8,2.7c-0.4,1-0.6,2.2-0.6,3.4c0,1.2,0.2,2.4,0.6,3.4c0.4,1,1,1.9,1.8,2.7
						c0.8,0.7,1.7,1.3,2.7,1.8c1,0.4,2.2,0.6,3.4,0.6c0,0,0,0,0,0c1.2,0,2.3-0.2,3.4-0.6c1-0.4,2-1,2.7-1.7c0.8-0.7,1.4-1.6,1.8-2.7
						c0.4-1,0.7-2.2,0.7-3.4c0-1.2-0.2-2.4-0.6-3.4C105.6,36.3,105,35.4,104.2,34.7z M98.1,46.6c-0.8,0-1.6-0.2-2.2-0.5
						c-0.7-0.3-1.2-0.7-1.7-1.2c-0.5-0.5-0.8-1.1-1.1-1.9c-0.3-0.7-0.4-1.5-0.4-2.3c0-0.8,0.1-1.6,0.4-2.3c0.3-0.7,0.6-1.3,1.1-1.9
						c0.5-0.5,1-0.9,1.7-1.2c0.7-0.3,1.4-0.5,2.2-0.5c0,0,0,0,0,0c0.8,0,1.6,0.2,2.3,0.5c0.7,0.3,1.2,0.7,1.7,1.3
						c0.5,0.5,0.8,1.2,1.1,1.9c0.3,0.7,0.4,1.5,0.4,2.3c0,0.8-0.1,1.6-0.4,2.3c-0.3,0.7-0.6,1.3-1.1,1.8c-0.5,0.5-1.1,0.9-1.7,1.2
						C99.7,46.4,98.9,46.6,98.1,46.6z"/>
					<polygon class="st0" points="124.3,32.8 121.5,32.8 121.4,48.9 131.2,48.9 131.2,46.3 124.3,46.3 					"/>
					<polygon class="st0" points="148.1,32.8 145.2,32.8 145.2,48.9 154.9,49 154.9,46.3 148,46.3 					"/>
					<path class="st0" d="M183.8,37.5c-0.4-1-1-1.9-1.8-2.7c-0.8-0.7-1.7-1.3-2.7-1.7c-1-0.4-2.2-0.6-3.4-0.6c0,0,0,0,0,0
						c-1.2,0-2.3,0.2-3.4,0.6c-1,0.4-1.9,1-2.7,1.7c-0.8,0.7-1.4,1.6-1.8,2.7c-0.4,1-0.6,2.2-0.6,3.4c0,1.2,0.2,2.4,0.6,3.4
						c0.4,1,1,1.9,1.8,2.7c0.8,0.7,1.7,1.3,2.7,1.8c1,0.4,2.2,0.6,3.4,0.6c0,0,0,0,0,0c1.2,0,2.3-0.2,3.4-0.6c1-0.4,2-1,2.7-1.7
						c0.8-0.7,1.4-1.6,1.8-2.7c0.4-1,0.7-2.2,0.7-3.4C184.5,39.7,184.3,38.5,183.8,37.5z M175.9,46.7c-0.8,0-1.6-0.2-2.2-0.5
						c-0.7-0.3-1.2-0.7-1.7-1.2c-0.5-0.5-0.8-1.1-1.1-1.9c-0.3-0.7-0.4-1.5-0.4-2.3c0-0.8,0.1-1.6,0.4-2.3c0.3-0.7,0.6-1.3,1.1-1.9
						c0.5-0.5,1-0.9,1.7-1.2c0.7-0.3,1.4-0.5,2.2-0.5c0,0,0,0,0,0c0.8,0,1.6,0.2,2.3,0.5c0.7,0.3,1.2,0.7,1.7,1.3
						c0.5,0.5,0.8,1.2,1.1,1.9c0.3,0.7,0.4,1.5,0.4,2.3c0,0.8-0.1,1.6-0.4,2.3c-0.3,0.7-0.6,1.3-1.1,1.8c-0.5,0.5-1.1,0.9-1.7,1.2
						C177.5,46.6,176.8,46.7,175.9,46.7z"/>
					<polygon class="st0" points="44.3,32.6 41.8,32.6 34.8,48.7 38,48.7 39.1,46.1 39.1,46.1 41.1,41.1 43,36.5 45.1,41.8 
						45.1,41.8 46.7,45.8 47.9,48.7 51.1,48.8 					"/>
				</g>
				<path class="st0" d="M48.9,64.2l-0.8,0l0-8l2.3,0c0.4,0,0.8,0,1.1,0.1c0.3,0.1,0.6,0.2,0.9,0.4s0.4,0.4,0.6,0.7
					c0.1,0.3,0.2,0.6,0.2,1c0,0.3-0.1,0.6-0.2,0.8c-0.1,0.2-0.2,0.4-0.4,0.6s-0.4,0.3-0.6,0.4c-0.2,0.1-0.5,0.2-0.8,0.2l2.3,3.8
					l-1,0l-2.2-3.7l-1.3,0L48.9,64.2z M48.9,59.8l1.4,0c0.7,0,1.2-0.1,1.5-0.4c0.4-0.2,0.5-0.6,0.5-1.1c0-0.3,0-0.5-0.1-0.7
					c-0.1-0.2-0.2-0.3-0.4-0.4c-0.2-0.1-0.4-0.2-0.6-0.2c-0.2-0.1-0.5-0.1-0.8-0.1l-1.4,0L48.9,59.8z"/>
				<path class="st0" d="M62.1,63.5l4.3,0l0,0.7l-5.1,0l0-8l4.9,0l0,0.7l-4.1,0l0,2.7l3.9,0l0,0.7l-3.9,0L62.1,63.5z"/>
				<path class="st0" d="M80.2,63.1L80.2,63.1l0-6.8l0.8,0l0,8l-1,0l-4.6-6.9l0,0l0,6.8l-0.8,0l0-8l1,0L80.2,63.1z"/>
				<path class="st0" d="M90.4,63.5l4.3,0l0,0.7l-5.1,0l0-8l4.9,0l0,0.7l-4.1,0l0,2.7l3.9,0l0,0.7l-3.9,0L90.4,63.5z"/>
				<path class="st0" d="M104.7,63.2L104.7,63.2l2-6.8l1,0l2,6.9l0,0l2-6.8l0.9,0l-2.4,8l-0.9,0l-2-6.8l0,0l-2,6.8l-0.9,0l-2.3-8
					l0.9,0L104.7,63.2z"/>
				<path class="st0" d="M120.1,64.3l-0.9,0l3.5-8l0.8,0l3.4,8l-0.9,0l-0.9-2.1l-4.1,0L120.1,64.3z M121.2,61.5l3.5,0l-1.7-4.2
					L121.2,61.5z"/>
				<path class="st0" d="M134.5,56.4l2.4,0c0.3,0,0.6,0,0.9,0.1c0.3,0.1,0.6,0.2,0.8,0.3c0.2,0.2,0.4,0.4,0.6,0.6
					c0.2,0.3,0.2,0.6,0.2,1c0,0.4-0.1,0.8-0.4,1.1c-0.3,0.3-0.6,0.5-1,0.6l0,0c0.5,0.1,0.9,0.3,1.3,0.6c0.3,0.3,0.5,0.8,0.5,1.4
					c0,0.3-0.1,0.6-0.2,0.9c-0.1,0.3-0.3,0.5-0.6,0.7c-0.3,0.2-0.6,0.3-0.9,0.4c-0.4,0.1-0.8,0.2-1.2,0.2l-2.4,0L134.5,56.4z
					 M135.3,59.9l1.6,0c0.2,0,0.4,0,0.6-0.1c0.2,0,0.4-0.1,0.5-0.2c0.2-0.1,0.3-0.3,0.4-0.4c0.1-0.2,0.2-0.4,0.2-0.7
					c0-0.3,0-0.5-0.2-0.6s-0.2-0.3-0.4-0.4c-0.2-0.1-0.4-0.2-0.6-0.2c-0.2,0-0.5-0.1-0.7-0.1l-1.4,0L135.3,59.9z M135.3,63.6l1.5,0
					c0.3,0,0.6,0,0.8-0.1c0.3-0.1,0.5-0.1,0.7-0.3c0.2-0.1,0.4-0.3,0.5-0.5c0.1-0.2,0.2-0.4,0.2-0.7c0-0.5-0.2-0.9-0.5-1.2
					c-0.4-0.3-0.9-0.4-1.5-0.4l-1.7,0L135.3,63.6z"/>
				<path class="st0" d="M149,63.7l3.7,0l0,0.7l-4.5,0l0-8l0.8,0L149,63.7z"/>
				<path class="st0" d="M161.2,63.7l4.3,0l0,0.7l-5.1,0l0-8l4.9,0l0,0.7l-4.1,0l0,2.7l3.9,0l0,0.7l-3.9,0L161.2,63.7z"/>
				<path class="st0" d="M177.5,57.8c-0.2-0.2-0.4-0.4-0.7-0.6c-0.3-0.1-0.6-0.2-1-0.2c-0.2,0-0.4,0-0.6,0.1
					c-0.2,0.1-0.4,0.2-0.6,0.3c-0.2,0.1-0.3,0.3-0.4,0.5c-0.1,0.2-0.2,0.4-0.2,0.7c0,0.3,0,0.5,0.1,0.6c0.1,0.2,0.2,0.3,0.4,0.4
					c0.2,0.1,0.3,0.2,0.5,0.3c0.2,0.1,0.4,0.2,0.6,0.2c0.3,0.1,0.6,0.2,0.8,0.3c0.3,0.1,0.5,0.2,0.8,0.4c0.2,0.2,0.4,0.4,0.5,0.6
					c0.1,0.3,0.2,0.6,0.2,1c0,0.4-0.1,0.7-0.2,1c-0.2,0.3-0.3,0.5-0.6,0.7c-0.2,0.2-0.5,0.3-0.8,0.4c-0.3,0.1-0.6,0.1-0.9,0.1
					c-0.2,0-0.5,0-0.7-0.1c-0.2,0-0.5-0.1-0.7-0.2c-0.2-0.1-0.4-0.2-0.6-0.4c-0.2-0.2-0.4-0.3-0.5-0.5l0.7-0.5
					c0.2,0.3,0.4,0.5,0.7,0.7c0.3,0.2,0.7,0.3,1.1,0.3c0.2,0,0.4,0,0.6-0.1c0.2-0.1,0.4-0.2,0.6-0.3c0.2-0.1,0.3-0.3,0.4-0.5
					c0.1-0.2,0.2-0.4,0.2-0.7c0-0.3-0.1-0.5-0.2-0.7c-0.1-0.2-0.3-0.3-0.4-0.5c-0.2-0.1-0.4-0.2-0.6-0.3s-0.5-0.2-0.7-0.2
					c-0.3-0.1-0.5-0.2-0.8-0.3c-0.3-0.1-0.5-0.2-0.7-0.4c-0.2-0.2-0.4-0.4-0.5-0.6c-0.1-0.2-0.2-0.6-0.2-0.9c0-0.4,0.1-0.7,0.2-1
					s0.4-0.5,0.6-0.7c0.2-0.2,0.5-0.3,0.8-0.4c0.3-0.1,0.6-0.1,0.9-0.1c0.5,0,1,0.1,1.4,0.3s0.7,0.4,0.9,0.7L177.5,57.8z"/>
			</g>
		</g>
	</g>
	<g>
		<path d="M44.2,21.6C44.2,21.6,44.2,21.6,44.2,21.6L44.2,21.6L44.2,21.6z M21.5,44.1C21.5,44.1,21.5,44.1,21.5,44.1L21.5,44.1
			L21.5,44.1z"/>
		<path class="st1" d="M31.8,55c-0.1-0.1-1-1-1.1-1.1c-6-6.6-6-16.6,0.5-23c6.4-6.4,16.9-6.6,23.3-0.2c0.1,0.1,0.9,1,1,1.1l6.1-6.7
			l11.5-12.6L53.5,25.1l-0.3-7.9L47,22.7L43,0l-4.7,22.6L32.6,17l-1,8.3c-0.1,0.1-18.8-13-18.8-13l12.3,19.6l-8.2,0.2l5.4,6.4
			L0,42.2l22.3,4.3l-5.8,5.7l8,0.4L12,72.5 M44.8,22.2C44.8,22.2,44.8,22.2,44.8,22.2L44.8,22.2L44.8,22.2z M22,44.9
			C22,44.9,22,44.9,22,44.9L22,44.9L22,44.9z"/>
	</g>
</g>
</svg>