<?xml version="1.0" encoding="utf-8"?>
<!-- Generator: Adobe Illustrator 21.1.0, SVG Export Plug-In . SVG Version: 6.00 Build 0)  -->
<svg version="1.1" id="Calque_1" xmlns="http://www.w3.org/2000/svg" xmlns:xlink="http://www.w3.org/1999/xlink" x="0px" y="0px"
	 viewBox="0 0 432 432" style="enable-background:new 0 0 432 432;" xml:space="preserve">
<style type="text/css">
	.st0{fill:#D2A895;}
	.st1{fill:#864F4D;}
	.st2{fill:#644F43;}
	.st3{fill:#292726;}
	.st4{fill:#10447B;}
	.st5{fill:#9B1914;}
	.st6{fill:#B1C369;}
	.st7{fill:#4D593A;}
	.st8{fill:#7E8D66;}
	.st9{fill:#A3BC70;}
	.st10{fill:#789835;}
	.st11{fill:#C19D63;}
	.st12{fill:#282727;}
	.st13{fill:#AE7461;}
	.st14{fill:#3C3C3B;}
	.st15{fill:#6C7D49;}
	.st16{fill:#343434;}
	.st17{fill:#FCD271;}
	.st18{fill:#935C8D;}
	.st19{fill:#E47B19;}
	.st20{fill:#939D3C;}
	.st21{fill:#A2C1DB;}
	.st22{fill:#D86E63;}
	.st23{fill:#43484C;}
	.st24{fill:#007D97;}
	.st25{fill:#A08155;}
	.st26{fill:#E3635C;}
	.st27{fill:#C85581;}
	.st28{fill:#B33233;}
	.st29{fill:#F7A815;}
	.st30{fill:#ED7E87;}
	.st31{fill:#961639;}
	.st32{fill:#E7E6E6;}
	.st33{fill:#DAB575;}
	.st34{fill:#FAD4E2;}
	.st35{fill:#EE7089;}
	.st36{fill:#2A2A2C;}
	.st37{fill:#A98F64;}
	.st38{fill:#E0B05B;}
	.st39{fill:#37622C;}
	.st40{fill:#5B8151;}
	.st41{fill:#E9D3B4;}
	.st42{fill:#332313;}
	.st43{fill:#222751;}
	.st44{fill:#BCBDBF;}
	.st45{fill:#7FBD5C;}
	.st46{fill:#0F8E82;}
	.st47{fill:#F9B03D;}
	.st48{fill:#F2F2F2;}
	.st49{fill:#647D48;}
	.st50{fill:#D4AB7A;}
	.st51{fill:#E8C8A8;}
	.st52{fill:#EFC0C9;}
	.st53{fill:#070708;}
	.st54{fill:#835E42;}
	.st55{fill:#B58A6A;}
	.st56{fill:#100B0B;}
	.st57{fill:#FFFFFF;}
	.st58{fill:#C9B38C;}
	.st59{fill:#CDCCCC;}
	.st60{fill:#D6929D;}
	.st61{fill:#784831;}
	.st62{fill:#3F6E2C;}
	.st63{fill:#F7B663;}
	.st64{fill:#D98694;}
	.st65{fill:#1B1B1B;}
	.st66{fill:#C1292E;}
	.st67{fill:#C6AC96;}
	.st68{fill:#EA86AB;}
	.st69{fill:#C17291;}
	.st70{fill:#95355A;}
	.st71{fill:#7D98AB;}
	.st72{fill:#56A3DA;}
	.st73{fill:#B4B4B4;}
	.st74{fill:#C68D12;}
	.st75{fill:#658762;}
	.st76{fill:#9B5A60;}
	.st77{fill:#020203;}
	.st78{fill:#738C81;}
	.st79{fill:#33473E;}
</style>
<g>
	<path class="st78" d="M110.4,268.8c-0.5-2-0.9-3.8-1.4-5.6c-1.9-7.9-3.5-15.8-4.6-23.8c-0.5-4-0.9-8-1.4-11.9
		c-0.1-1-0.4-1.9-0.8-2.8c-0.4-1.1-1.3-1.8-2.5-2c-2.4-0.3-4.8-0.8-7.2-1.1c-6.3-0.8-12-3.1-17.3-6.7c-4.2-2.9-8.3-6-12.1-9.4
		c-1.6-1.4-3.1-2.7-4.7-4.1c-0.4-0.4-0.8-0.8-1.2-1.2c-0.8-1.1-0.6-2.3,0.3-3.2c0.4-0.4,0.8-0.8,1.3-1.1c3.9-2.3,8-3.7,12.6-3.5
		c4.4,0.2,8.1,2,11.3,5c1.8,1.7,3.2,3.6,4.4,5.7c1,1.7,1.9,3.4,2.9,5.1c1,1.6,2,3.2,3,4.7c1.2,1.8,2.9,3.2,4.7,4.4
		c1.2,0.8,2.4,1.4,3.7,2.1c0.3,0.2,0.7,0.3,1.1,0.5c0-0.3,0-0.5,0-0.8c-0.3-6.9-0.2-13.8,0.1-20.7c0.1-3.2,0.3-6.3,0.5-9.5
		c0.1-2.5,0.4-5,0.5-7.6c0-0.6,0-1.2-0.2-1.8c-0.3-0.9-0.8-1.3-1.8-1.3c-0.9,0-1.7,0-2.6,0c-2.8,0.1-5.4-0.5-8-1.8
		c-4.3-2.1-8-5-11.2-8.6c-4.3-4.8-7.7-10.1-10-16.2c-1.1-2.9-1.8-5.9-1.8-9c0-0.2,0-0.4,0-0.6c0-1.8,1-2.7,2.8-2.3
		c1.1,0.2,2.1,0.6,3.1,1.1c2.6,1.3,4.9,3.1,7,5c6.9,6,12.7,12.9,17.6,20.6c1.1,1.6,2.2,3.2,3.4,4.8c0.5,0.6,1.2,1,1.8,1.5
		c0.1,0.1,0.3,0.1,0.6,0.1c0.3-1.8,0.5-3.5,0.8-5.3c1-6.8,2.5-13.5,4.5-20c0-0.1,0-0.1,0.1-0.2c0.4-1.5,0.2-1.9-1.3-2.4
		c-3.6-1.1-6.3-3.3-8.3-6.4c-0.8-1.3-1.5-2.6-2.1-4c-1.5-3.2-3-6.4-4.5-9.6c-0.2-0.4-0.4-0.8-0.5-1.2c-0.3-1,0.1-1.9,1-2.4
		c0.7-0.4,1.4-0.6,2.2-0.6c3.1,0,5.7,1.1,8.1,3c2,1.6,3.3,3.6,4.1,5.9c0.7,1.9,1.1,3.9,1.7,5.9c0.4,1.3,0.8,2.6,1.3,4
		c0.1,0.4,0.3,0.7,0.6,1.2c0.2-0.2,0.2-0.3,0.3-0.5c1.6-3.3,3.1-6.7,4.8-10c1-2,1.3-4,1.3-6.1c0-1.6-0.1-3.2,0-4.8
		c0.3-3.3,1.7-6.3,3.4-9.1c1.4-2.2,3-4.3,4.8-6.2c0.2-0.3,0.5-0.5,0.7-0.7c1.2-1,2.4-1.2,3.7-0.4c1.9,1.2,3.5,2.8,4.5,4.9
		c1.8,4.1,1.5,8-0.9,11.8c-1,1.6-2.3,2.9-3.8,4c-1.6,1.1-3.2,2.2-4.8,3.2c-1.3,0.9-2.6,1.8-3.6,3c-0.6,0.8-1.3,1.7-1.7,2.6
		c-1,2.5-1.9,5-2.9,7.5c0,0.1,0,0.2-0.1,0.5c0.2-0.1,0.3-0.1,0.4-0.1c2.2-1.6,4.7-2.4,7.3-3c3.9-0.8,7.8-1.7,11.7-2.5
		c0.8-0.2,1.6-0.5,2.4-0.7c0.4-0.1,0.9-0.2,1.3-0.3c1.9-0.3,3.2,0.7,3.3,2.6c0.1,0.9-0.1,1.8-0.5,2.7c-0.8,2.1-2.2,3.8-3.9,5.3
		c-3.9,3.1-8.3,4.3-13.1,3.3c-2.2-0.4-4.3-1.1-6.5-1.7c-0.5-0.1-1.1-0.3-1.7-0.4c-1.2-0.1-2,0.3-2.5,1.4c-0.3,0.8-0.6,1.5-0.8,2.3
		c-1.8,6.5-3.3,13.2-4.3,19.9c-0.1,1-0.3,1.9-0.4,2.9c0,0.3,0,0.6-0.1,1c0.3,0,0.6,0,0.8-0.1c1.3-0.3,2.4-0.8,3.6-1.5
		c3.1-1.8,5.6-4.2,7.9-6.9c2.5-2.8,5.1-5.6,8.1-8c3.7-3.1,7.7-5.8,11.9-8.2c0.5-0.3,1.1-0.6,1.7-0.8c1.8-0.6,3.4,0,4.4,1.7
		c0.6,1.1,0.9,2.2,1,3.4c0.1,1.6,0,3.2-0.4,4.7c-1.4,5.5-4.4,9.8-9.5,12.5c-3.3,1.8-6.8,2.9-10.5,3.7c-3.7,0.8-7.5,1.3-11.3,1.7
		c-1.5,0.2-3.1,0.4-4.6,0.8c-2,0.4-3.1,1.7-3.4,3.7c-0.8,5.1-1.3,10.1-1.5,15.3c-0.2,6.7-0.4,13.4-0.3,20.2c0,0.8,0.1,1.6,0.1,2.7
		c0.5-0.4,0.8-0.7,1.2-1c1.9-1.9,3.5-4,5-6.3c2.1-3.3,4.1-6.7,6.2-10c4.4-7,9.7-13.3,15.8-18.9c2.5-2.3,4.9-4.7,7.3-7
		c0.9-0.8,1.8-1.7,2.8-2.4c1.4-1.1,2.7-0.9,3.8,0.5c1.1,1.3,1.6,2.9,1.5,4.6c-1.1,12.6-6.3,23-15.9,31.2c-2.6,2.3-5.7,3.9-8.8,5.3
		c-4.4,1.9-8.8,3.7-13.1,5.6c-1.2,0.5-2.3,1.2-3.4,1.8c-0.9,0.5-1.4,1.2-1.4,2.2c-0.1,1.3-0.1,2.5-0.1,3.8c0.7,12,3.1,23.8,5.9,35.5
		c0.3,1.1,0.5,2.1,0.8,3.3c0.6-0.4,1-0.9,1.3-1.4c1.3-1.9,2.2-4,2.7-6.3c0.4-2.2,0.7-4.5,1-6.7c0.4-3.2,0.6-6.5,1-9.7
		c0.4-4,1.6-7.8,3.3-11.4c2.1-4.3,4.7-8.4,7.5-12.2c2.9-4,6-7.8,9.3-11.5c0.6-0.7,1.2-1.3,1.9-1.9c1.2-1.1,2.5-1.2,4-0.6
		c1.5,0.7,2.6,1.8,3.5,3.2c1.2,1.9,2.1,4,2.7,6.1c1.4,5.2,1.5,10.5,0.2,15.7c-1.5,6.2-4,12-8.1,17c-4.9,5.9-10.7,10.8-17.6,14.3
		c-3.2,1.6-6.2,3.5-8.8,6c-1.4,1.4-2,3-1.9,5c0.1,0.9,0.2,1.8,0.5,2.7c2.4,8.4,5.8,16.4,9.7,24.1c0.1,0.1,0.1,0.2,0.2,0.4
		c0.1-0.1,0.2-0.1,0.2-0.2c0-4.2,1.2-8,2.9-11.8c1-2.1,2.1-4.3,3.2-6.3c1.6-2.9,3.3-5.7,5-8.6c3.6-6.1,6.8-12.5,9.4-19.1
		c0.3-0.8,0.7-1.7,1.1-2.5c0.2-0.4,0.4-0.8,0.7-1.1c1-1.5,2.4-1.9,4-1.4c0.7,0.2,1.3,0.5,1.9,0.9c1.4,0.9,2.6,2,3.5,3.4
		c2.3,3.5,4,7.4,4.9,11.5c0.8,4,0.6,7.9-0.5,11.8c-1.6,5.7-4.3,10.7-8.5,14.8c-2.2,2.2-4.8,3.9-7.6,5.2c-2,0.9-4,1.8-6,2.7
		c-2.5,1.1-4.9,2.4-7.1,3.9c-0.9,0.6-1.7,1.3-2.3,2.3c-0.6,1-0.8,2-0.3,3c0.7,1.4,1.4,2.9,2.2,4.2c2.5,4.3,5.1,8.6,7.7,12.9
		c0.4,0.7,0.7,1.3,0.7,2.1c-0.1,1.2-0.7,2-1.8,2.5c-1.2,0.4-2.3,0.2-3.1-0.7c-0.5-0.5-0.9-1.1-1.2-1.7c-2.6-4.3-5.2-8.7-7.8-13
		c-0.3-0.5-0.6-1-0.9-1.4c-0.9-1.2-2.1-1.5-3.5-1.3c-0.9,0.1-1.8,0.4-2.6,0.7c-0.9,0.4-1.8,0.9-2.7,1.4c-5.4,3-11.3,4.1-17.4,3.7
		c-4-0.2-7.9-1.1-11.6-2.6c-4.6-1.9-8.5-4.9-11.8-8.7c-2-2.3-3.9-4.8-5.8-7.2c-0.4-0.5-0.7-1-0.9-1.5c-0.7-1.5-0.4-2.9,0.7-4.1
		c0.8-0.8,1.8-1.3,2.8-1.8c5.2-2.3,10.4-2.4,15.8-0.9c3.3,0.9,6.4,2.4,9.2,4.4c2.2,1.5,4.3,3.1,6.4,4.7c2.2,1.6,4.2,3.3,6.5,4.8
		c2.9,1.9,6,3.3,9.6,3.5c0.9,0.1,1.9,0,3,0c-0.3-0.5-0.4-0.8-0.6-1.2c-3.4-6.6-6.7-13.3-9.3-20.3c-1.1-3-2.1-6-3.1-8.9
		c-0.3-1-0.8-1.9-1.2-2.9c-0.4-0.8-1-1.2-1.9-1c-0.4,0.1-0.8,0.1-1.1,0.3c-5.7,2.4-11.5,2.4-17.3,0.7c-4.6-1.3-8.9-3.2-13.1-5.7
		c-0.9-0.5-1.8-1-2.7-1.6c-4.5-2.8-9.2-5.3-14-7.6c-0.7-0.3-1.3-0.7-1.9-1.1c-1.4-1-1.7-2.2-1.1-3.7c0.2-0.4,0.3-0.8,0.6-1.1
		c2.4-3.6,5.5-6.5,9.4-8.3c4.8-2.3,9.7-2.3,14.6-0.1c2.5,1.1,4.7,2.6,6.7,4.4c2.3,2.1,4.2,4.4,6.1,6.9c1.8,2.4,3.5,4.8,5.4,7.1
		c1.2,1.5,2.5,2.9,4.1,3.9c1,0.7,2.1,1.3,3.3,1.3C109.2,269,109.7,268.9,110.4,268.8z"/>
	<path class="st79" d="M224.1,288.5c-0.1-0.2-0.1-0.4-0.2-0.6c-2.2-6.8-4-13.8-5.7-20.8c-1-4.1-2.1-8.1-3.7-12
		c-0.7-1.6-1.5-3.1-2.5-4.6c-0.7-1.1-1.7-1.9-2.8-2.6c-3-2-6.2-3.6-9.5-5.1c-4.9-2.1-9.7-4.4-14.3-7c-2.6-1.5-5.2-3.2-7.4-5.3
		c-2.2-2.1-4-4.4-4.9-7.4c-0.4-1.5-0.6-3-0.4-4.5c0.6-2.9,2.8-4.8,5.8-5c2.2-0.1,4.3,0.3,6.3,1.1c4,1.4,7.4,3.6,10.6,6.3
		c3.7,3.1,6.7,6.8,9.7,10.6c3.3,4.2,6.1,8.7,8.8,13.2c0.2,0.3,0.3,0.5,0.6,0.7c-0.1-1-0.2-1.9-0.3-2.9c-0.5-5.6-1.1-11.2-1.6-16.8
		c-0.3-3.6-0.4-7.2-0.6-10.9c-0.1-2.9-0.2-5.8-0.4-8.6c-0.2-2.1-0.8-4.1-1.2-6.1c-0.1-0.4-0.3-0.7-0.5-1c-1.6-3-3.6-5.8-6.1-8.2
		c-3.2-3.2-6.6-6.2-10.1-9c-3.2-2.6-6.2-5.4-8.6-8.7c-1.8-2.4-3.2-4.9-4.1-7.7c-0.9-2.8-1-5.5,0.1-8.3c1-2.5,2.6-4.4,5.3-5.1
		c1.8-0.5,3.5-0.3,5.2,0.4c1.9,0.7,3.4,1.9,4.8,3.3c1.6,1.5,2.9,3.3,4.2,5.1c3.1,4.7,5.5,9.7,7.6,14.9c1.3,3.3,2.5,6.7,3.5,10.1
		c0.1,0.2,0.2,0.5,0.4,0.7c0-0.2,0.1-0.3,0.1-0.5c0.5-5.1,0.8-10.2,1.4-15.3c0.5-4.1,1.2-8.2,1.8-12.3c0.5-3.8,0.5-7.6-0.6-11.3
		c-0.9-3.2-1.6-6.5-2.3-9.8c-0.6-3.2-1-6.4-0.8-9.7c0.3-6,1.7-11.7,4.9-16.9c0.7-1.2,1.6-2.3,2.5-3.3c3-3.3,6.8-5,11.2-5
		c4,0,7.2,1.8,9.4,5.1c1.5,2.2,2.2,4.7,2.5,7.3c0.4,3.6-0.4,7-1.5,10.4c-1.5,4.7-4,8.9-6.8,12.9c-1.6,2.3-3.2,4.4-4.9,6.6
		c-2.8,3.5-4.9,7.4-6.8,11.5c-1.1,2.4-1.7,5-2,7.6c-0.7,5.7-1.4,11.3-2,17c-0.4,3.5-0.5,7.1-0.7,10.6c0.1,0,0.1,0.1,0.2,0.1
		c0.1-0.2,0.3-0.3,0.4-0.5c4.2-7.1,9.6-13.2,16.2-18.3c2.6-2,5.5-3.7,8.8-4.6c2.1-0.6,4.3-0.8,6.5-0.3c3,0.8,5.2,2.5,5.9,5.7
		c0.4,1.8,0.1,3.6-0.8,5.3c-1.1,2.3-2.8,4.2-4.8,5.6c-1.5,1-3,1.9-4.6,2.8c-4.7,2.5-9.6,4.5-14.5,6.5c-1.8,0.7-3.5,1.5-5.3,2.3
		c-0.4,0.2-0.9,0.4-1.3,0.6c-3.6,2-5.8,4.9-6.3,9.1c-0.3,2.4-0.2,4.9-0.1,7.3c0.1,3.2,0.3,6.3,0.5,9.5c0.3,4.2,0.7,8.5,1.1,12.7
		c0.1,1.4,0.3,2.8,0.4,4.1c0,0.1,0,0.3,0.1,0.6c0.2-0.3,0.2-0.4,0.3-0.5c2.2-6.4,5.8-12,10.1-17.3c3.4-4.2,7.4-7.7,12-10.5
		c3.2-1.9,6.6-3,10.3-3.2c1.3-0.1,2.5,0,3.8,0.3c5.1,1.2,7.5,6.3,5.9,10.9c-0.6,1.7-1.6,3.2-2.9,4.5c-1.3,1.4-2.8,2.5-4.4,3.4
		c-3,1.8-6.1,3.3-9.3,4.7c-5.4,2.5-10.7,5.1-15.7,8.1c-1.2,0.7-2.4,1.5-3.4,2.4c-2.8,2.3-4.4,5.3-4.8,8.9c-0.2,1.5,0.1,2.8,0.3,4.2
		c1.7,10.1,4.2,19.9,7.3,29.7c0.1,0.2,0.2,0.5,0.3,0.9c0.2-1.4,0.4-2.5,0.6-3.7c1.8-8.2,5.2-15.5,10.4-22.1c2.6-3.2,5.6-6,9.2-8.1
		c2.6-1.5,5.3-2.4,8.4-2.3c4,0.1,7.5,3,8.2,6.9c0.4,2-0.1,4-1,5.8c-0.9,1.9-2.3,3.4-3.8,4.8c-1.5,1.4-3.2,2.6-5,3.6
		c-2.2,1.2-4.4,2.3-6.6,3.4c-3,1.5-6.1,2.8-9,4.5c-4.7,2.7-7.2,6.9-7.8,12.3c-0.4,3.3,0.2,6.5,1.3,9.5c2.2,6,4.6,12,7,18
		c0.7,1.9,1.6,3.7,2.3,5.6c0.2,0.5,0.4,1.2,0.3,1.7c-0.1,1.2-0.7,2.1-1.9,2.5c-1.2,0.4-2.2,0.1-3-0.8c-0.4-0.4-0.6-0.9-0.9-1.4
		c-3.1-7.2-6-14.5-8.8-21.8c-1-2.7-2.3-5.3-3.6-7.9c-0.9-1.9-2.5-3.2-4.4-4.2c-2.3-1.3-4.8-1.9-7.5-2.1c-3.3-0.3-6.6-0.2-9.8-0.2
		c-3.6,0-7.1,0-10.7-0.1c-3-0.1-5.9-0.7-8.6-2.1c-1.5-0.8-2.8-1.9-3.8-3.3c-2.2-3.2-1.8-8.1,2.1-10.5c2.2-1.4,4.6-2,7.1-2.2
		c4.6-0.3,9,0.7,13.3,2.4c5.8,2.3,11,5.5,15.6,9.7c1.4,1.2,2.7,2.6,4,3.9c0.1,0.1,0.2,0.3,0.3,0.5
		C224,288.6,224.1,288.5,224.1,288.5z"/>
	<path class="st78" d="M322.1,275.7c-0.2,1.3-0.4,2.6-0.6,3.9c-2,12.5-4.5,24.9-7.9,37.1c-0.6,2.1-1.2,4.1-1.9,6.1
		c-0.3,0.9-0.7,1.7-1.1,2.5c-0.1,0.2-0.3,0.5-0.5,0.7c-0.7,0.6-1.4,1.2-2.3,0.9c-1.1-0.3-1.8-1.1-2-2.2c-0.1-0.7-0.1-1.4,0.1-2
		c0.7-2.3,1.4-4.6,2.1-7c1.8-6.2,3.3-12.4,4.5-18.7c1.3-6.4,2.4-12.8,3.5-19.3c0.2-1,0.3-2,0.4-3c-0.2,0-0.2-0.1-0.3-0.1
		c-6.6,0.8-12.8-0.6-18.7-3.5c-3.6-1.7-7.1-3.8-9.9-6.7c-2.8-2.9-5.2-6.2-6.8-10c-1-2.4-1.5-4.9-1.3-7.6c0.4-5,4.2-8.6,9.2-8.7
		c2.7-0.1,5.2,0.7,7.6,1.8c3.1,1.5,5.9,3.6,8.4,5.9c4.3,4,7.8,8.7,10.7,13.8c0.6,1.1,1.2,2.3,1.8,3.4c0.1,0.2,0.2,0.4,0.4,0.5
		c1.3-12.3,1.8-24.5,1.5-36.9c-0.2,0-0.4,0-0.6,0.1c-6.1,1.7-12.1,1.8-18.2,0.2c-4.6-1.2-9.2-2.6-13.4-4.8c-3.5-1.8-6.8-4-9.5-6.8
		c-3.6-3.7-6.1-8-7.1-13.1c-0.5-2.3-0.5-4.6,0-7c1.1-4.9,5-8.3,10.1-9c3.8-0.5,7.3,0.3,10.6,2c2.4,1.2,4.5,2.8,6.5,4.6
		c3.5,3.1,6.5,6.6,9.3,10.3c3,4,5.9,8,8.8,12c0.9,1.2,1.8,2.5,2.8,3.7c0.2,0.2,0.4,0.4,0.7,0.8c0-0.5,0-0.9,0-1.2
		c-0.2-4.1-0.3-8.2-0.5-12.3c-0.3-5.1-0.6-10.3-0.9-15.4c-0.1-2-0.3-4.1-0.5-6.1c0-0.5-0.1-0.8-0.6-1.1c-2.5-1.5-4.7-3.5-6.8-5.6
		c-4.6-4.6-8.7-9.5-12-15.2c-2.1-3.6-3.6-7.4-5-11.3c-1.2-3.6-2.3-7.1-2.8-10.9c-1-7.1-0.6-14,2.2-20.7c1.9-4.5,5-7.9,9.4-10.1
		c2.7-1.3,5.6-1.6,8.5-1.3c6.1,0.7,11,3.7,15,8.1c5,5.4,8,11.9,9.2,19.2c1.2,7.8,0.6,15.5-1.2,23.1c-1.1,4.6-2.6,9-4.6,13.3
		c-1.4,3.1-3.2,6-5.3,8.6c-0.3,0.4-0.4,0.8-0.4,1.3c0.3,2.9,0.5,5.8,0.7,8.7c0.3,5.1,0.6,10.2,0.9,15.3c0.1,2.6,0.2,5.2,0.3,7.9
		c0,0.5,0.1,1,0.1,1.7c0.3-0.4,0.4-0.6,0.6-0.9c6-10.1,14.3-17.7,24.3-23.7c3.2-1.9,6.6-3.3,10.3-4c3.8-0.7,7.3-0.1,10.5,2.2
		c3,2.1,4.6,5.1,5,8.7c0.6,5-0.8,9.5-3.3,13.7c-3.1,5.1-7.6,8.8-12.9,11.3c-5.3,2.5-10.9,4.2-16.7,5c-4.4,0.6-8.8,0.7-13.2,0.3
		c-1.1-0.1-2.2-0.3-3.3-0.5c-0.2,0-0.4-0.1-0.7-0.1c0,0.3,0,0.6,0,0.9c-0.1,5.2,0,10.4-0.2,15.6c-0.2,5.5-0.7,11-1,16.5
		c0,0.7-0.1,1.4-0.1,2.2c0.3-0.4,0.5-0.6,0.7-0.8c3.4-4.1,7.1-7.8,11.6-10.7c4.7-3.2,9.8-5.5,15.4-6.6c3.5-0.7,7-0.9,10.4,0
		c6.8,1.8,11.1,7.7,10.6,14.8c-0.2,2.5-1.1,4.9-2.5,7c-1.8,2.7-4.1,4.7-6.8,6.3c-3.1,1.8-6.4,2.8-9.8,3.6
		c-6.1,1.4-12.3,1.8-18.5,1.3c-3.9-0.3-7.6-1-11.3-2.2C322.8,275.9,322.5,275.8,322.1,275.7z M308.3,112.4c0,0.2,0,0.3,0.1,0.4
		c1.3,3.6,2.2,7.4,3.1,11.1c1.4,5.4,2.8,10.9,4.2,16.3c2.7,10.3,4.4,20.8,5.6,31.4c0.2,1.4,0.4,2.8,0.6,4.4c0.3-0.3,0.4-0.5,0.5-0.7
		c0.8-1.4,1.6-2.8,2.3-4.2c2-4.1,3.4-8.5,4.5-13c1.6-6.9,2.2-13.8,1.2-20.9c-1-6.8-3.7-12.8-8.3-17.9c-2.6-2.9-5.8-4.9-9.5-6.2
		C311.2,112.6,309.8,112.4,308.3,112.4z M366.7,253.1c-0.3-0.4-0.5-0.7-0.8-1c-2-2.2-4.5-3.4-7.5-3.7c-3.2-0.3-6.4,0.1-9.4,1.1
		c-10.4,3.3-18.4,9.8-24.5,18.8c-0.1,0.1-0.1,0.3-0.2,0.5c1.8-0.3,3.4-0.6,5.1-0.9c5-0.9,9.9-2.3,14.7-4c3.6-1.3,7.3-2.6,10.9-4.2
		c3.9-1.7,7.6-3.9,11.2-6.2C366.4,253.4,366.5,253.3,366.7,253.1z M275.5,192.8c11.6,10.2,23.6,19.6,37.8,26.2
		c-0.2-0.3-0.2-0.5-0.3-0.6c-2.9-4-5.8-8-8.7-11.9c-2.9-3.8-5.9-7.5-9.5-10.7c-1.9-1.7-3.9-3.3-6.3-4.3c-2.6-1.2-5.4-1.7-8.3-1.2
		C278.3,190.6,276.8,191.3,275.5,192.8z M366.5,191.7c-0.4-0.2-0.6-0.3-0.7-0.3c-2-0.7-4-0.7-6-0.3c-3,0.7-5.9,1.9-8.6,3.4
		c-4,2.3-7.7,5.1-11.1,8.2c-5.3,4.7-9.7,10.1-13,16.4c-0.2,0.3-0.3,0.6-0.5,1c0.9-0.2,1.6-0.6,2.4-0.9c3.7-1.6,7.1-3.6,10.5-5.8
		c5.8-3.8,11.3-8,16.6-12.5c3.3-2.7,6.4-5.6,9.6-8.5C365.9,192.2,366.1,192,366.5,191.7z M295,122.8c-0.1,0.1-0.2,0.1-0.2,0.2
		c-0.1,0.3-0.2,0.5-0.3,0.8c-1.4,4.3-1.7,8.7-1.5,13.1c0,0.4,0.2,0.6,0.5,0.8c0.8,0.5,1.5,1.1,2.3,1.6c4.8,3,9.8,5.7,15.1,7.9
		c0.2,0.1,0.4,0.1,0.7,0.2c0-0.4,0-0.6-0.1-0.9c-0.8-4.1-1.7-8.3-2.5-12.4c-0.1-0.6-0.4-0.9-0.9-1.2c-4.5-2.8-8.7-6-12.5-9.6
		C295.4,123.1,295.2,123,295,122.8z M293.9,142.6c0,0.2,0,0.3,0,0.4c0,0.2,0,0.3,0.1,0.5c1.4,5.3,3.1,10.5,5.5,15.4
		c0.3,0.7,0.8,1.1,1.5,1.4c4.2,1.7,8.6,2.7,13.1,3.6c0.1,0,0.2,0,0.2-0.1c0-0.1,0.1-0.1,0.1-0.2c-0.6-3.5-1.2-7.1-1.7-10.6
		c-0.1-0.7-0.4-1-1-1.2c-4.6-1.9-9.1-4-13.3-6.5C296.9,144.3,295.5,143.5,293.9,142.6z M285.2,243.2c4.3,5.4,25.1,22,29.3,23.4
		c-0.1-0.2-0.2-0.4-0.3-0.6c-1.1-2.1-2.2-4.3-3.5-6.3c-2.6-4.4-5.8-8.3-9.6-11.6c-2.4-2.1-4.9-3.9-7.8-5.1c-1.7-0.7-3.4-1.1-5.3-0.9
		C287.1,242.1,286.1,242.5,285.2,243.2z M369.5,208.4c-4.6-0.5-8.9-1.4-13-3c-2.9,2.2-5.7,4.4-8.5,6.5c0.4,0.2,0.6,0.4,0.8,0.5
		c3.7,2.2,7.7,3.6,11.7,5.1c0.4,0.2,0.7,0,1-0.2c2.9-2,5.2-4.4,7.1-7.4C368.9,209.5,369.1,209.1,369.5,208.4z M347.4,266.8
		c0.1,0.2,0.1,0.3,0.2,0.4c1.5,2.1,3.4,3.8,5.3,5.5c0.3,0.3,0.6,0.2,0.9,0.1c1.1-0.3,2.1-0.6,3.2-1c2.8-1,5.3-2.4,7.5-4.5
		c0.2-0.2,0.4-0.4,0.7-0.7c-0.5-0.1-0.8-0.2-1.1-0.3c-2.6-0.6-5.1-1.5-7.4-2.7c-0.4-0.2-0.7-0.1-1.1,0c-2.1,0.8-4.2,1.7-6.3,2.5
		C348.6,266.3,348,266.5,347.4,266.8z M338.5,218.4c0.1,0.1,0.2,0.3,0.3,0.4c1.8,1.6,3.6,3.3,5.4,4.9c0.3,0.3,0.7,0.2,1.1,0.2
		c3.7-0.8,7.2-1.9,10.7-3.4c0.2-0.1,0.4-0.2,0.7-0.4c-0.7-0.3-1.4-0.5-2-0.7c-3.2-1.3-6.4-2.8-9.3-4.6c-0.4-0.2-0.6-0.4-1.1-0.1
		C342.3,215.9,340.4,217.2,338.5,218.4z M279.1,212.1c0.1,0.1,0.3,0.4,0.5,0.6c1.6,1.7,3.4,3.1,5.4,4.3c1.9,1.2,1.9,1.3,3.8,0
		c1.9-1.3,3.8-2.8,5.6-4.1c0.1,0,0.1-0.2,0.1-0.2c-2.5-1.8-4.9-3.6-7.4-5.4C284.4,208.9,281.8,210.5,279.1,212.1z M307.7,128.2
		c-0.2-2.4-2.7-14.3-3.3-15.4c-3,0.8-6.6,3.7-7.8,6.3C300,122.5,303.7,125.4,307.7,128.2z M316.3,179.1c-0.5-3.8-0.9-7.6-1.4-11.2
		c-3.9-0.9-7.8-1.8-11.6-2.7C304.9,168.1,313.6,177.6,316.3,179.1z M287.8,259.3c2.4,3,5.1,5.3,8.4,7.1c1.2-0.5,4.6-2.9,5.6-3.8
		c-0.2-0.2-0.5-0.4-0.7-0.6c-1.7-1.3-3.4-2.6-5.1-3.9c-0.5-0.4-0.9-0.7-1.4-1.1c-0.4-0.4-0.7-0.4-1.2-0.1c-1.7,0.8-3.4,1.5-5.1,2.3
		C288.2,259.1,288.1,259.2,287.8,259.3z M369.4,194c-0.6,0.6-1.2,1.1-1.9,1.7c-0.6,0.6-1.3,1.2-1.9,1.7c-0.7,0.6-1.3,1.2-2,1.8
		c-0.6,0.6-1.3,1.1-1.9,1.7c-0.6,0.6-1.3,1-1.9,1.7c3.6,1.2,7.2,1.7,10.9,2.1C372.1,201.2,371.6,196,369.4,194z M273.6,196.3
		c-0.7,4.7,0.6,8.8,3,12.7c2.6-1.1,5-2.5,7.2-4.1C280.5,201.9,277.1,199.2,273.6,196.3z M291,220.2c2.6,1.2,5.3,2,8,2.7
		c0.4,0.1,0.7,0,0.9-0.3c1.3-1.4,2.7-2.7,4.1-4.2c-2.1-1.2-4-2.4-6-3.6C295.6,216.6,293.3,218.4,291,220.2z M337.8,269.9
		c0.4,0.5,0.8,0.9,1.1,1.2c0.8,0.9,1.7,1.8,2.4,2.8c0.4,0.5,0.7,0.7,1.3,0.6c1.7-0.2,3.4-0.3,5.1-0.5c0.3,0,0.5-0.1,0.8-0.2
		c-1.7-1.9-3.3-3.8-5-5.8C341.7,268.7,339.8,269.2,337.8,269.9z M314.1,271c-3.1-2-6.1-3.9-9.2-5.9c-1.5,1.1-3,2.2-4.7,3.4
		C304.8,270.3,309.3,271.5,314.1,271z M283.2,246.7c-0.4,3.5,0.8,6.4,2.5,9.4c1.8-0.8,3.4-1.5,5.2-2.2
		C288.3,251.4,285.8,249.1,283.2,246.7z M339.3,224.7c-1.5-1.4-3-2.8-4.5-4.2c-2.6,1.2-5.3,2.5-8.2,3.9
		C328.7,225,335.4,225.2,339.3,224.7z M360.6,261.2c2.2,0.9,4.5,1.5,6.8,2c1-2.1,1.3-4.2,0.8-6.5
		C365.6,258.3,363.1,259.7,360.6,261.2z M303.9,223.9c1.9,0.8,8.4,0.7,10.6-0.1c-2.4-1.2-4.8-2.4-7.2-3.5
		C306.2,221.5,305,222.7,303.9,223.9z M325.2,272.5c3,1.3,10.5,2.3,11.6,1.8c-0.8-0.9-1.6-1.7-2.4-2.6c-0.6-0.6-1.2-0.8-2-0.6
		c-1.5,0.4-3,0.6-4.5,0.8C326.9,272.1,326,272.3,325.2,272.5z"/>
</g>
</svg>
