<svg width="317" height="436" xmlns="http://www.w3.org/2000/svg"><defs><linearGradient x1="38.723%" y1="1.652%" x2="55.733%" y2="71.633%" id="a"><stop stop-color="#AA4D56" offset="0%"/><stop stop-color="#F28D89" offset="58.78%"/><stop stop-color="#F58E92" offset="100%"/></linearGradient><linearGradient x1="59.271%" y1="108.511%" x2="35.332%" y2="25.622%" id="b"><stop stop-color="#D06D6C" offset="15.34%"/><stop stop-color="#B44B62" offset="100%"/></linearGradient><linearGradient x1="53.357%" y1="5.582%" x2="47.503%" y2="94.743%" id="c"><stop stop-color="#AA6269" offset="0%"/><stop stop-color="#F0877F" offset="57.39%"/><stop stop-color="#C6696D" offset="100%"/></linearGradient><linearGradient x1="35.983%" y1="26.732%" x2="68.777%" y2="115.859%" id="d"><stop stop-color="#A76067" offset="24.34%"/><stop stop-color="#F0877F" offset="57.39%"/><stop stop-color="#BC6368" offset="79.82%"/></linearGradient><linearGradient x1=".033%" y1="49.971%" x2="100.033%" y2="49.971%" id="e"><stop stop-color="#8C5975" offset="0%"/><stop stop-color="#AA6269" offset="28.46%"/><stop stop-color="#D6706F" offset="61.57%"/><stop stop-color="#BA5B65" offset="100%"/></linearGradient><linearGradient x1=".098%" y1="49.908%" x2="100.099%" y2="49.908%" id="f"><stop stop-color="#8C5975" offset="0%"/><stop stop-color="#AA6269" offset="28.46%"/><stop stop-color="#F0877F" offset="57.39%"/><stop stop-color="#C6696D" offset="100%"/></linearGradient><linearGradient x1="3.894%" y1="57.994%" x2="63.889%" y2="49.626%" id="g"><stop stop-color="#EFA37C" offset="0%"/><stop stop-color="#EE807C" offset="15.34%"/><stop stop-color="#F28686" offset="55.37%"/><stop stop-color="#F58E92" offset="100%"/></linearGradient><linearGradient x1=".141%" y1="49.799%" x2="100.14%" y2="49.799%" id="h"><stop stop-color="#AA4D56" offset="0%"/><stop stop-color="#F28D89" offset="58.78%"/><stop stop-color="#F58E92" offset="100%"/></linearGradient><linearGradient x1=".034%" y1="49.828%" x2="100.034%" y2="49.828%" id="i"><stop stop-color="#EFA37C" offset="0%"/><stop stop-color="#F0877F" offset="15.34%"/><stop stop-color="#CF6F73" offset="55.37%"/><stop stop-color="#B44B62" offset="100%"/></linearGradient><linearGradient x1=".062%" y1="49.917%" x2="100.062%" y2="49.917%" id="j"><stop stop-color="#8C5975" offset="0%"/><stop stop-color="#AA6269" offset="42.38%"/><stop stop-color="#9D5E75" offset="100%"/></linearGradient><radialGradient cx="50.547%" cy="48.929%" fx="50.547%" fy="48.929%" r="52.035%" id="k"><stop stop-color="#232547" offset="0%"/><stop stop-color="#212440" offset="100%"/></radialGradient><linearGradient x1="25.003%" y1="24.807%" x2="51.142%" y2="90.003%" id="l"><stop stop-color="#AA6269" offset="0%"/><stop stop-color="#C6696D" offset="100%"/></linearGradient><linearGradient x1=".057%" y1="49.968%" x2="100.194%" y2="49.968%" id="m"><stop stop-color="#EFA37C" offset="0%"/><stop stop-color="#F0877F" offset="15.34%"/><stop stop-color="#F28D89" offset="55.37%"/><stop stop-color="#F58E92" offset="100%"/></linearGradient><linearGradient x1=".594%" y1="49.402%" x2="100.594%" y2="49.402%" id="n"><stop stop-color="#F1A07D" offset="0%"/><stop stop-color="#F7A7A1" offset="100%"/></linearGradient><linearGradient x1=".426%" y1="49.338%" x2="100.006%" y2="49.338%" id="o"><stop stop-color="#EF827D" offset="0%"/><stop stop-color="#F79F9C" offset="100%"/></linearGradient><linearGradient x1="-.087%" y1="49.376%" x2="101.196%" y2="49.376%" id="p"><stop stop-color="#EF827D" offset="0%"/><stop stop-color="#F79F9C" offset="100%"/></linearGradient><linearGradient x1="1.178%" y1="49.444%" x2="100.487%" y2="49.444%" id="q"><stop stop-color="#F3AA81" offset="0%"/><stop stop-color="#FCCCB2" offset="100%"/></linearGradient><linearGradient x1=".734%" y1="49.451%" x2="99.878%" y2="49.451%" id="r"><stop stop-color="#F3AA81" offset="0%"/><stop stop-color="#FCCCB2" offset="100%"/></linearGradient><linearGradient x1="-.492%" y1="49.461%" x2="100.271%" y2="49.461%" id="s"><stop stop-color="#F3AA81" offset="0%"/><stop stop-color="#FCCCB2" offset="100%"/></linearGradient><linearGradient x1=".43%" y1="49.442%" x2="99.778%" y2="49.442%" id="t"><stop stop-color="#F3AA81" offset="0%"/><stop stop-color="#FCCCB2" offset="100%"/></linearGradient><linearGradient x1=".415%" y1="49.464%" x2="100.418%" y2="49.464%" id="u"><stop stop-color="#F3AA81" offset="0%"/><stop stop-color="#FCCCB2" offset="100%"/></linearGradient><linearGradient x1="118.589%" y1="92.851%" x2="37.363%" y2="12.718%" id="v"><stop stop-color="#8C5975" offset="0%"/><stop stop-color="#AA6269" offset="28.46%"/><stop stop-color="#C57274" offset="51.46%"/><stop stop-color="#B65B6B" offset="100%"/></linearGradient><linearGradient x1="-.636%" y1="49.452%" x2="99.948%" y2="49.452%" id="w"><stop stop-color="#F1A07D" offset="0%"/><stop stop-color="#F7A7A1" offset="100%"/></linearGradient><linearGradient x1=".076%" y1="49.456%" x2="100.239%" y2="49.456%" id="x"><stop stop-color="#F1A07D" offset="0%"/><stop stop-color="#F7A7A1" offset="100%"/></linearGradient><linearGradient x1=".602%" y1="49.442%" x2="102.393%" y2="49.442%" id="y"><stop stop-color="#F1A07D" offset="0%"/><stop stop-color="#F7A7A1" offset="100%"/></linearGradient><linearGradient x1=".544%" y1="49.433%" x2="100.234%" y2="49.433%" id="z"><stop stop-color="#F1A07D" offset="0%"/><stop stop-color="#F7A7A1" offset="100%"/></linearGradient><linearGradient x1=".516%" y1="49.383%" x2="100.515%" y2="49.383%" id="A"><stop stop-color="#F1A07D" offset="0%"/><stop stop-color="#F7A7A1" offset="100%"/></linearGradient><linearGradient x1="66.663%" y1=".014%" x2="40.746%" y2="105.545%" id="B"><stop stop-color="#F3C187" offset="0%"/><stop stop-color="#F0877F" offset="15.34%"/><stop stop-color="#D76B8C" offset="55.37%"/><stop stop-color="#4D3657" offset="100%"/></linearGradient><linearGradient x1="108.598%" y1="56.396%" x2="48.357%" y2="49.362%" id="C"><stop stop-color="#C96B86" offset="0%"/><stop stop-color="#943E5B" offset="61.44%"/></linearGradient><linearGradient x1="275.491%" y1="5.93%" x2="4.677%" y2="71.224%" id="D"><stop stop-color="#D76B8C" offset="0%"/><stop stop-color="#4D3657" offset="100%"/></linearGradient><linearGradient x1="72.477%" y1="2.958%" x2="8.249%" y2="98.427%" id="E"><stop stop-color="#B25A7E" offset="55.37%"/><stop stop-color="#4D3657" offset="100%"/></linearGradient><linearGradient x1=".08%" y1="49.95%" x2="100.08%" y2="49.95%" id="F"><stop stop-color="#943E5D" offset="0%"/><stop stop-color="#943E5B" offset="61.44%"/></linearGradient><linearGradient x1=".255%" y1="49.685%" x2="100.087%" y2="49.685%" id="G"><stop stop-color="#AA5A72" offset="0%"/><stop stop-color="#943E5B" offset="61.44%"/></linearGradient><linearGradient x1=".07%" y1="49.89%" x2="100.07%" y2="49.89%" id="H"><stop stop-color="#773F58" offset="0%"/><stop stop-color="#584063" offset="100%"/></linearGradient><linearGradient x1=".124%" y1="49.93%" x2="100.124%" y2="49.93%" id="I"><stop stop-color="#C96B86" offset="0%"/><stop stop-color="#943E5B" offset="61.44%"/></linearGradient><linearGradient x1="90.02%" y1="69.574%" x2="-1.757%" y2="15.607%" id="J"><stop stop-color="#C96B86" offset="0%"/><stop stop-color="#943E5B" offset="61.44%"/></linearGradient><linearGradient x1="91.317%" y1="21.313%" x2="13.025%" y2="85.247%" id="K"><stop stop-color="#8D4561" offset="0%"/><stop stop-color="#4D3657" offset="100%"/></linearGradient><linearGradient x1="63.797%" y1="-48.916%" x2="44.171%" y2="112.509%" id="L"><stop stop-color="#F0877F" offset="0%"/><stop stop-color="#C95E70" offset="100%"/></linearGradient><linearGradient x1="58.62%" y1="-56.821%" x2="49.813%" y2="96.2%" id="M"><stop stop-color="#F0877F" offset="0%"/><stop stop-color="#C95E70" offset="100%"/></linearGradient><linearGradient x1=".063%" y1="49.882%" x2="100.063%" y2="49.882%" id="N"><stop stop-color="#773F58" offset="0%"/><stop stop-color="#584063" offset="100%"/></linearGradient><linearGradient x1="71.424%" y1="13.239%" x2="4.401%" y2="110.652%" id="O"><stop stop-color="#C96B86" offset="0%"/><stop stop-color="#943E5B" offset="61.44%"/></linearGradient><linearGradient x1=".056%" y1="49.931%" x2="100.056%" y2="49.931%" id="P"><stop stop-color="#C96B86" offset="0%"/><stop stop-color="#AA4969" offset="61.44%"/></linearGradient><linearGradient x1=".064%" y1="49.807%" x2="100.064%" y2="49.807%" id="Q"><stop stop-color="#EF827D" offset="0%"/><stop stop-color="#F79F9C" offset="100%"/></linearGradient><linearGradient x1=".083%" y1="49.803%" x2="100.083%" y2="49.803%" id="R"><stop stop-color="#F0877F" offset="0%"/><stop stop-color="#F79F9C" offset="100%"/></linearGradient><linearGradient x1=".091%" y1="49.755%" x2="100.092%" y2="49.755%" id="S"><stop stop-color="#F0877F" offset="0%"/><stop stop-color="#F79F9C" offset="100%"/></linearGradient><linearGradient x1=".115%" y1="49.492%" x2="100.115%" y2="49.492%" id="T"><stop stop-color="#F2A28A" offset="0%"/><stop stop-color="#F79F9C" offset="100%"/></linearGradient><linearGradient x1=".247%" y1="49.428%" x2="100.247%" y2="49.428%" id="U"><stop stop-color="#F3AA8D" offset="0%"/><stop stop-color="#FBC0AC" offset="100%"/></linearGradient><linearGradient x1=".235%" y1="49.679%" x2="100.235%" y2="49.679%" id="V"><stop stop-color="#F3AA8D" offset="0%"/><stop stop-color="#FBC0AC" offset="100%"/></linearGradient><linearGradient x1=".177%" y1="49.577%" x2="100.177%" y2="49.577%" id="W"><stop stop-color="#F2A28A" offset="0%"/><stop stop-color="#F79F9C" offset="100%"/></linearGradient><linearGradient x1=".172%" y1="49.322%" x2="100.172%" y2="49.322%" id="X"><stop stop-color="#EF827D" offset="0%"/><stop stop-color="#F79F9C" offset="100%"/></linearGradient><linearGradient x1=".253%" y1="49.19%" x2="100.254%" y2="49.19%" id="Y"><stop stop-color="#EF827D" offset="0%"/><stop stop-color="#F79F9C" offset="100%"/></linearGradient><linearGradient x1=".308%" y1="49.132%" x2="100.311%" y2="49.132%" id="Z"><stop stop-color="#EF827D" offset="0%"/><stop stop-color="#F79F9C" offset="100%"/></linearGradient><linearGradient x1=".17%" y1="49.312%" x2="100.17%" y2="49.312%" id="aa"><stop stop-color="#F0877F" offset="0%"/><stop stop-color="#F79F9C" offset="100%"/></linearGradient><linearGradient x1=".25%" y1="49.177%" x2="100.25%" y2="49.177%" id="ab"><stop stop-color="#F0877F" offset="0%"/><stop stop-color="#F79F9C" offset="100%"/></linearGradient><linearGradient x1=".308%" y1="49.132%" x2="100.307%" y2="49.132%" id="ac"><stop stop-color="#F0877F" offset="0%"/><stop stop-color="#F79F9C" offset="100%"/></linearGradient><linearGradient x1=".144%" y1="49.401%" x2="100.143%" y2="49.401%" id="ad"><stop stop-color="#404067" offset="31.93%"/><stop stop-color="#232547" offset="59.13%"/><stop stop-color="#212440" offset="100%"/></linearGradient><linearGradient x1="-.327%" y1="49.587%" x2="100.172%" y2="49.587%" id="ae"><stop stop-color="#F19D6F" offset="0%"/><stop stop-color="#F9B6A8" offset="100%"/></linearGradient><linearGradient x1=".491%" y1="49.628%" x2="100.205%" y2="49.628%" id="af"><stop stop-color="#D1676A" offset="0%"/><stop stop-color="#E37E88" offset="100%"/></linearGradient><linearGradient x1=".248%" y1="49.655%" x2="100.46%" y2="49.655%" id="ag"><stop stop-color="#EF827D" offset="0%"/><stop stop-color="#F79F9C" offset="100%"/></linearGradient><linearGradient x1="1.413%" y1="49.644%" x2="100.761%" y2="49.644%" id="ah"><stop stop-color="#EF827D" offset="0%"/><stop stop-color="#E2878C" offset="100%"/></linearGradient><linearGradient x1=".928%" y1="49.637%" x2="100.798%" y2="49.637%" id="ai"><stop stop-color="#EF827D" offset="0%"/><stop stop-color="#F79F9C" offset="100%"/></linearGradient><linearGradient x1=".74%" y1="49.622%" x2="100.894%" y2="49.622%" id="aj"><stop stop-color="#EF827D" offset="0%"/><stop stop-color="#F79F9C" offset="100%"/></linearGradient><linearGradient x1=".174%" y1="49.538%" x2="100.71%" y2="49.538%" id="ak"><stop stop-color="#EF827D" offset="0%"/><stop stop-color="#E2878C" offset="100%"/></linearGradient><linearGradient x1=".351%" y1="49.447%" x2="100.351%" y2="49.447%" id="al"><stop stop-color="#D1676A" offset="0%"/><stop stop-color="#E37E88" offset="100%"/></linearGradient><linearGradient x1=".775%" y1="49.582%" x2="100.421%" y2="49.582%" id="am"><stop stop-color="#EA8E79" offset="0%"/><stop stop-color="#F9B6A8" offset="100%"/></linearGradient><linearGradient x1=".771%" y1="49.571%" x2="100.648%" y2="49.571%" id="an"><stop stop-color="#EF827D" offset="0%"/><stop stop-color="#F79F9C" offset="100%"/></linearGradient><linearGradient x1=".701%" y1="49.519%" x2="100.701%" y2="49.519%" id="ao"><stop stop-color="#EF827D" offset="0%"/><stop stop-color="#E2878C" offset="100%"/></linearGradient><linearGradient x1=".657%" y1="49.505%" x2="100.654%" y2="49.505%" id="ap"><stop stop-color="#EF827D" offset="0%"/><stop stop-color="#E2878C" offset="100%"/></linearGradient><linearGradient x1="80.829%" y1="-8.187%" x2="21.543%" y2="110.309%" id="aq"><stop stop-color="#EFA37C" offset="0%"/><stop stop-color="#DF7E77" offset="43.08%"/></linearGradient><linearGradient x1="-.013%" y1="49.617%" x2="100.234%" y2="49.617%" id="ar"><stop stop-color="#F19D6F" offset="0%"/><stop stop-color="#F9B6A8" offset="100%"/></linearGradient><linearGradient x1=".693%" y1="49.654%" x2="100.86%" y2="49.654%" id="as"><stop stop-color="#F19D6F" offset="0%"/><stop stop-color="#F9B6A8" offset="100%"/></linearGradient><linearGradient x1="-.133%" y1="49.582%" x2="100.318%" y2="49.582%" id="at"><stop stop-color="#F1A07D" offset="0%"/><stop stop-color="#F7A7A1" offset="100%"/></linearGradient><linearGradient x1=".932%" y1="49.526%" x2="100.769%" y2="49.526%" id="au"><stop stop-color="#F19D6F" offset="0%"/><stop stop-color="#F9B6A8" offset="100%"/></linearGradient><linearGradient x1=".318%" y1="49.509%" x2="100.319%" y2="49.509%" id="av"><stop stop-color="#F19D6F" offset="0%"/><stop stop-color="#F9B6A8" offset="100%"/></linearGradient><linearGradient x1=".326%" y1="49.482%" x2="100.326%" y2="49.482%" id="aw"><stop stop-color="#F19D6F" offset="0%"/><stop stop-color="#F9B6A8" offset="100%"/></linearGradient><linearGradient x1=".375%" y1="49.546%" x2="100.372%" y2="49.546%" id="ax"><stop stop-color="#F19D6F" offset="0%"/><stop stop-color="#F9B6A8" offset="100%"/></linearGradient><linearGradient x1=".699%" y1="49.56%" x2="100.695%" y2="49.56%" id="ay"><stop stop-color="#F19D6F" offset="0%"/><stop stop-color="#F9B6A8" offset="100%"/></linearGradient><linearGradient x1="1.86%" y1="49.409%" x2="101.86%" y2="49.409%" id="az"><stop stop-color="#F19D6F" offset="0%"/><stop stop-color="#F9B6A8" offset="100%"/></linearGradient><linearGradient x1=".145%" y1="49.564%" x2="100.147%" y2="49.564%" id="aA"><stop stop-color="#C35C65" offset="0%"/><stop stop-color="#CA6174" offset="100%"/></linearGradient><linearGradient x1="1.002%" y1="49.593%" x2="101.001%" y2="49.593%" id="aB"><stop stop-color="#C35C65" offset="0%"/><stop stop-color="#CA6174" offset="100%"/></linearGradient><linearGradient x1="31.388%" y1="1.469%" x2="70.64%" y2="100.98%" id="aC"><stop stop-color="#C35C65" offset="0%"/><stop stop-color="#DD6A7F" offset="100%"/></linearGradient><linearGradient x1=".291%" y1="49.626%" x2="100.082%" y2="49.626%" id="aD"><stop stop-color="#D37B73" offset="0%"/><stop stop-color="#DE7583" offset="100%"/></linearGradient><linearGradient x1=".296%" y1="49.628%" x2="101.273%" y2="49.628%" id="aE"><stop stop-color="#D2726F" offset="0%"/><stop stop-color="#DE7583" offset="100%"/></linearGradient><linearGradient x1=".574%" y1="49.627%" x2="100.574%" y2="49.627%" id="aF"><stop stop-color="#E07A75" offset="0%"/><stop stop-color="#DF7F87" offset="100%"/></linearGradient><linearGradient x1=".504%" y1="49.62%" x2="100.386%" y2="49.62%" id="aG"><stop stop-color="#D1676A" offset="0%"/><stop stop-color="#E37E88" offset="100%"/></linearGradient><linearGradient x1="-.183%" y1="49.609%" x2="100.218%" y2="49.609%" id="aH"><stop stop-color="#EF827D" offset="0%"/><stop stop-color="#E2878C" offset="100%"/></linearGradient><linearGradient x1=".285%" y1="49.609%" x2="100.285%" y2="49.609%" id="aI"><stop stop-color="#EF827D" offset="0%"/><stop stop-color="#E2878C" offset="100%"/></linearGradient><linearGradient x1="-.081%" y1="49.578%" x2="99.766%" y2="49.578%" id="aJ"><stop stop-color="#C0656B" offset="0%"/><stop stop-color="#E37E88" offset="100%"/></linearGradient><linearGradient x1="46.568%" y1="-12.795%" x2="54.403%" y2="114.281%" id="aK"><stop stop-color="#B7567A" offset="0%"/><stop stop-color="#B77F87" offset="100%"/></linearGradient><linearGradient x1=".293%" y1="49.619%" x2="100.293%" y2="49.619%" id="aL"><stop stop-color="#D3817A" offset="0%"/><stop stop-color="#DE7583" offset="100%"/></linearGradient><linearGradient x1=".327%" y1="49.603%" x2="100.326%" y2="49.603%" id="aM"><stop stop-color="#F19D6F" offset="0%"/><stop stop-color="#F9B6A8" offset="100%"/></linearGradient><linearGradient x1="-.846%" y1="49.541%" x2="99.299%" y2="49.541%" id="aN"><stop stop-color="#F19D6F" offset="0%"/><stop stop-color="#F9B6A8" offset="100%"/></linearGradient><linearGradient x1="-.191%" y1="49.474%" x2="100.985%" y2="49.474%" id="aO"><stop stop-color="#F19D6F" offset="0%"/><stop stop-color="#F9B6A8" offset="100%"/></linearGradient><linearGradient x1=".726%" y1="49.465%" x2="100.581%" y2="49.465%" id="aP"><stop stop-color="#F19D6F" offset="0%"/><stop stop-color="#F9B6A8" offset="100%"/></linearGradient><linearGradient x1="1.035%" y1="49.397%" x2="100.645%" y2="49.397%" id="aQ"><stop stop-color="#F19D6F" offset="0%"/><stop stop-color="#F9B6A8" offset="100%"/></linearGradient><linearGradient x1=".753%" y1="49.345%" x2="101.145%" y2="49.345%" id="aR"><stop stop-color="#F19D6F" offset="0%"/><stop stop-color="#F9B6A8" offset="100%"/></linearGradient><linearGradient x1="1.437%" y1="49.285%" x2="101.437%" y2="49.285%" id="aS"><stop stop-color="#F19D6F" offset="0%"/><stop stop-color="#F9B6A8" offset="100%"/></linearGradient><linearGradient x1="72.086%" y1="-57.73%" x2="43.176%" y2="98.046%" id="aT"><stop stop-color="#EF827D" offset="0%"/><stop stop-color="#F79F9C" offset="100%"/></linearGradient><linearGradient x1=".464%" y1="49.217%" x2="100.463%" y2="49.217%" id="aU"><stop stop-color="#EF827D" offset="0%"/><stop stop-color="#F79F9C" offset="100%"/></linearGradient><linearGradient x1=".433%" y1="49.421%" x2="100.433%" y2="49.421%" id="aV"><stop stop-color="#EF827D" offset="0%"/><stop stop-color="#F79F9C" offset="100%"/></linearGradient><linearGradient x1=".433%" y1="49.463%" x2="100.43%" y2="49.463%" id="aW"><stop stop-color="#F19D6F" offset="0%"/><stop stop-color="#F9B6A8" offset="100%"/></linearGradient><linearGradient x1="-.15%" y1="49.477%" x2="99.85%" y2="49.477%" id="aX"><stop stop-color="#F3AA81" offset="0%"/><stop stop-color="#FCCCB2" offset="100%"/></linearGradient><linearGradient x1=".892%" y1="49.506%" x2="100.527%" y2="49.506%" id="aY"><stop stop-color="#F3AA81" offset="0%"/><stop stop-color="#FCCCB2" offset="100%"/></linearGradient><linearGradient x1="-.061%" y1="49.524%" x2="100.612%" y2="49.524%" id="aZ"><stop stop-color="#F3AA81" offset="0%"/><stop stop-color="#FCCCB2" offset="100%"/></linearGradient><linearGradient x1="-.198%" y1="49.507%" x2="100.216%" y2="49.507%" id="ba"><stop stop-color="#F1A07D" offset="0%"/><stop stop-color="#F7A7A1" offset="100%"/></linearGradient><linearGradient x1="2.062%" y1="42.131%" x2="99.117%" y2="56.957%" id="bb"><stop stop-color="#F1A07D" offset="0%"/><stop stop-color="#F7A7A1" offset="100%"/></linearGradient><linearGradient x1="90.456%" y1="88.749%" x2="8.847%" y2="9.371%" id="bc"><stop stop-color="#F1A07D" offset="0%"/><stop stop-color="#F7A7A1" offset="100%"/></linearGradient><linearGradient x1="97.43%" y1="82.95%" x2=".46%" y2="13.84%" id="bd"><stop stop-color="#F1A07D" offset="0%"/><stop stop-color="#F7A7A1" offset="100%"/></linearGradient><linearGradient x1="113.738%" y1="29.991%" x2="-14.365%" y2="69.475%" id="be"><stop stop-color="#9A4E72" offset="0%"/><stop stop-color="#B77F87" offset="100%"/></linearGradient><linearGradient x1="120.011%" y1="115.42%" x2="12.303%" y2="13.687%" id="bf"><stop stop-color="#9A4E72" offset="0%"/><stop stop-color="#B77F87" offset="100%"/></linearGradient><linearGradient x1="139.21%" y1="102.682%" x2="-5.082%" y2="15.458%" id="bg"><stop stop-color="#9A4E72" offset="0%"/><stop stop-color="#B77F87" offset="100%"/></linearGradient><linearGradient x1="120.029%" y1="63.227%" x2="8.991%" y2="41.166%" id="bh"><stop stop-color="#9A4E72" offset="0%"/><stop stop-color="#B77F87" offset="100%"/></linearGradient><linearGradient x1="102.293%" y1="69.262%" x2="-8.248%" y2="27.587%" id="bi"><stop stop-color="#9A4E72" offset="0%"/><stop stop-color="#B77F87" offset="100%"/></linearGradient><linearGradient x1="126.489%" y1="94.172%" x2="19.16%" y2="29.28%" id="bj"><stop stop-color="#9A4E72" offset="0%"/><stop stop-color="#B77F87" offset="100%"/></linearGradient><linearGradient x1="32.678%" y1=".329%" x2="57.745%" y2="70.162%" id="bk"><stop stop-color="#D1676A" offset="0%"/><stop stop-color="#E37E88" offset="100%"/></linearGradient><linearGradient x1="127.971%" y1="65.31%" x2="13.686%" y2="42.212%" id="bl"><stop stop-color="#EF827D" offset="0%"/><stop stop-color="#E2878C" offset="100%"/></linearGradient><linearGradient x1="106.004%" y1="68.244%" x2="4.058%" y2="34.017%" id="bm"><stop stop-color="#EF827D" offset="0%"/><stop stop-color="#E88B8F" offset="100%"/></linearGradient><linearGradient x1="110.635%" y1="74.041%" x2="-.975%" y2="28.822%" id="bn"><stop stop-color="#BD7981" offset="0%"/><stop stop-color="#F48992" offset="100%"/></linearGradient><linearGradient x1="106.789%" y1="98.47%" x2="5.484%" y2="10.257%" id="bo"><stop stop-color="#B56279" offset="0%"/><stop stop-color="#CF8486" offset="100%"/></linearGradient><linearGradient x1="113.391%" y1="109.724%" x2="6%" y2="7.199%" id="bp"><stop stop-color="#9A4E72" offset="0%"/><stop stop-color="#B77F87" offset="100%"/></linearGradient><linearGradient x1="118.241%" y1="97.327%" x2="5.79%" y2="18.027%" id="bq"><stop stop-color="#9A4E72" offset="0%"/><stop stop-color="#B77F87" offset="100%"/></linearGradient><linearGradient x1="115.642%" y1="97.72%" x2="4.69%" y2="15.112%" id="br"><stop stop-color="#9A4E72" offset="0%"/><stop stop-color="#B77F87" offset="100%"/></linearGradient><linearGradient x1="111.605%" y1="102.106%" x2="5.892%" y2="10.049%" id="bs"><stop stop-color="#9A4E72" offset="0%"/><stop stop-color="#B77F87" offset="100%"/></linearGradient><linearGradient x1="-1.223%" y1="49.591%" x2="99.617%" y2="49.591%" id="bt"><stop stop-color="#C46669" offset="0%"/><stop stop-color="#DD6A7F" offset="100%"/></linearGradient><linearGradient x1=".34%" y1="49.565%" x2="100.339%" y2="49.565%" id="bu"><stop stop-color="#C35C65" offset="0%"/><stop stop-color="#D36886" offset="100%"/></linearGradient><linearGradient x1=".313%" y1="49.387%" x2="100.313%" y2="49.387%" id="bv"><stop stop-color="#EF827D" offset="0%"/><stop stop-color="#F79F9C" offset="100%"/></linearGradient><linearGradient x1=".221%" y1="49.509%" x2="100.222%" y2="49.509%" id="bw"><stop stop-color="#EF827D" offset="0%"/><stop stop-color="#F79F9C" offset="100%"/></linearGradient><linearGradient x1=".854%" y1="49.518%" x2="100.55%" y2="49.518%" id="bx"><stop stop-color="#EF827D" offset="0%"/><stop stop-color="#F79F9C" offset="100%"/></linearGradient><linearGradient x1=".202%" y1="49.391%" x2="100.204%" y2="49.391%" id="by"><stop stop-color="#EF827D" offset="0%"/><stop stop-color="#F79F9C" offset="100%"/></linearGradient><linearGradient x1=".355%" y1="49.047%" x2="98.988%" y2="49.047%" id="bz"><stop stop-color="#EF827D" offset="0%"/><stop stop-color="#F79F9C" offset="100%"/></linearGradient><linearGradient x1=".422%" y1="49.343%" x2="101.318%" y2="49.343%" id="bA"><stop stop-color="#9A4E72" offset="0%"/><stop stop-color="#D7A39D" offset="100%"/></linearGradient><radialGradient cx="87.632%" cy="-5.728%" fx="87.632%" fy="-5.728%" r="176.078%" id="bB"><stop stop-color="#404067" offset="0%"/><stop stop-color="#232547" offset="59.13%"/><stop stop-color="#212440" offset="100%"/></radialGradient><radialGradient cx="54.959%" cy="-47.568%" fx="54.959%" fy="-47.568%" r="165.226%" id="bC"><stop stop-color="#404067" offset="0%"/><stop stop-color="#232547" offset="59.13%"/><stop stop-color="#212440" offset="100%"/></radialGradient><radialGradient cx="132.642%" cy="15.231%" fx="132.642%" fy="15.231%" r="184.797%" id="bD"><stop stop-color="#404067" offset="0%"/><stop stop-color="#232547" offset="59.13%"/><stop stop-color="#212440" offset="100%"/></radialGradient><radialGradient cx="50.342%" cy="49.519%" fx="50.342%" fy="49.519%" r="50.06%" id="bE"><stop stop-color="#404067" offset="0%"/><stop stop-color="#232547" offset="59.13%"/><stop stop-color="#212440" offset="100%"/></radialGradient><radialGradient cx="13.36%" cy="-5.728%" fx="13.36%" fy="-5.728%" r="176.078%" id="bF"><stop stop-color="#404067" offset="0%"/><stop stop-color="#232547" offset="59.13%"/><stop stop-color="#212440" offset="100%"/></radialGradient><radialGradient cx="45.145%" cy="-47.568%" fx="45.145%" fy="-47.568%" r="165.226%" id="bG"><stop stop-color="#404067" offset="0%"/><stop stop-color="#232547" offset="59.13%"/><stop stop-color="#212440" offset="100%"/></radialGradient><radialGradient cx="-31.602%" cy="15.231%" fx="-31.602%" fy="15.231%" r="184.797%" id="bH"><stop stop-color="#404067" offset="0%"/><stop stop-color="#232547" offset="59.13%"/><stop stop-color="#212440" offset="100%"/></radialGradient><radialGradient cx="50.366%" cy="50.196%" fx="50.366%" fy="50.196%" r="50.128%" id="bI"><stop stop-color="#404067" offset="0%"/><stop stop-color="#232547" offset="59.13%"/><stop stop-color="#212440" offset="100%"/></radialGradient><linearGradient x1="53.812%" y1="-.449%" x2="43.462%" y2="137.448%" id="bJ"><stop stop-color="#8C5862" offset="0%"/><stop stop-color="#404067" offset="31.93%"/><stop stop-color="#232547" offset="59.13%"/><stop stop-color="#212440" offset="100%"/></linearGradient><linearGradient x1="-.077%" y1="49.869%" x2="99.923%" y2="49.869%" id="bK"><stop stop-color="#C96B86" offset="0%"/><stop stop-color="#943E5B" offset="61.44%"/></linearGradient><linearGradient x1="8.021%" y1="25.908%" x2="91.39%" y2="72.021%" id="bL"><stop stop-color="#F1A07D" offset="0%"/><stop stop-color="#F7A7A1" offset="100%"/></linearGradient><linearGradient x1="16.018%" y1="87.09%" x2="84.489%" y2="12.293%" id="bM"><stop stop-color="#F1A07D" offset="0%"/><stop stop-color="#F7A7A1" offset="100%"/></linearGradient><linearGradient x1="20.296%" y1="49.481%" x2="122.296%" y2="49.481%" id="bN"><stop stop-color="#9A4E72" offset="0%"/><stop stop-color="#D7A39D" offset="100%"/></linearGradient><linearGradient x1="25.77%" y1="18.985%" x2="86.272%" y2="91.947%" id="bO"><stop stop-color="#9A4E72" offset="0%"/><stop stop-color="#D7A39D" offset="100%"/></linearGradient><linearGradient x1="50.387%" y1="-37.046%" x2="50.387%" y2="121.388%" id="bP"><stop stop-color="#9A4E72" offset="0%"/><stop stop-color="#D7A39D" offset="100%"/></linearGradient><linearGradient x1="91.245%" y1="7.043%" x2="10.222%" y2="90.528%" id="bQ"><stop stop-color="#9A4E72" offset="0%"/><stop stop-color="#D7A39D" offset="100%"/></linearGradient><linearGradient x1="51.992%" y1="4.606%" x2="50.038%" y2="67.031%" id="bR"><stop stop-color="#A14F6A" offset="0%"/><stop stop-color="#4D3657" offset="100%"/></linearGradient><linearGradient x1=".027%" y1="49.963%" x2="100.026%" y2="49.963%" id="bS"><stop stop-color="#5E384F" offset="0%"/><stop stop-color="#943E5B" offset="61.44%"/></linearGradient><linearGradient x1="85.711%" y1="70.09%" x2="20.76%" y2="4.881%" id="bT"><stop stop-color="#B05D76" offset="0%"/><stop stop-color="#943E5B" offset="61.44%"/></linearGradient><linearGradient x1="81.821%" y1="6.135%" x2="6.275%" y2="84.294%" id="bU"><stop stop-color="#773F58" offset="0%"/><stop stop-color="#584063" offset="100%"/></linearGradient></defs><g fill="none" fill-rule="evenodd"><path d="M276.9 310.1c1.8-1.8 3.5-3.7 4.9-5.8 4.2-8 3.4-18.7 2.7-25-1.4-11.5-.2-17.5-.2-17.5-5.5 6.4.9 25.3-14.2 39s-46.2.9-46.2.9-6.5-8.1-14.7-18.4c-.9 1.9-1.5 2.5-2.7 4.3-.6.8-2-.1-1.4-.9 1.3-1.9 2.1-2.6 3.1-4.7-11.9-15.2-26.6-34.7-29.3-41.3-4.6-11.3-34.5 21.8-29.2 31.4 6.6 11.9 3.5 26.3 3.5 26.3l-21-18.7c-3.2 27.7 16.1 36.1 16.1 36.1-3.2 10.3-14.5 16.4-37.3 35.9C88.2 371.2 87.5 381 90.2 402c2.7 20.8 16.7 31.2 16.3 30.7-.4-.5-11.3-27.3-8.8-44.7 2.5-17.4 19.8-26.7 44.5-41.5 24.6-14.7 23.9-28 23.9-28 2.8.2 6.4-.5 6.4-.5 1.2 8-1.2 21.3-1.2 21.3-5.5 27.8-32.2 23.7-32.2 23.7s-4.3 8 16.8 8.5 26.7-19.1 26.7-19.1c8.1-.7 18.8-.9 22.3-5.3 3-3.7 1.4-7.6-4.6-11.9-6-4.3-13.1 1.2-13.1 1.2 1.1-7.8-.7-22.3-.7-22.3 5.5-1.6 10.3-6.2 10.3-6.2 7.3 5.1 10.3 8.5 29.8 13.5 12.7 3.2 29.1.2 41.8-5.4 2.7-1.9 5.9-3.4 8.5-5.9z" fill="#E8A2B0"/><path d="M276.9 310.1c1.8-1.8 3.5-3.7 4.9-5.8 4.2-8 3.4-18.7 2.7-25-1.4-11.5-.2-17.5-.2-17.5-5.5 6.4.9 25.3-14.2 39s-46.2.9-46.2.9-6.5-8.1-14.7-18.4c-.9 1.9-1.5 2.5-2.7 4.3-.6.8-2-.1-1.4-.9 1.3-1.9 2.1-2.6 3.1-4.7-11.9-15.2-26.6-34.7-29.3-41.3-4.6-11.3-34.5 21.8-29.2 31.4 6.6 11.9 3.5 26.3 3.5 26.3l-21.3-18.8c-3.2 27.7 16.4 36.2 16.4 36.2-3.2 10.3-14.5 16.4-37.3 35.9C88.2 371.2 87.5 381 90.2 402c2.7 20.8 16.7 31.2 16.3 30.7-.4-.5-11.3-27.3-8.8-44.7 2.5-17.4 19.8-26.7 44.5-41.5 24.6-14.7 23.9-28 23.9-28 2.8.2 6.4-.5 6.4-.5 1.2 8-1.2 21.3-1.2 21.3-5.5 27.8-32.2 23.7-32.2 23.7s-4.3 8 16.8 8.5 26.7-19.1 26.7-19.1c8.1-.7 18.8-.9 22.3-5.3 3-3.7 1.4-7.6-4.6-11.9-6-4.3-13.1 1.2-13.1 1.2 1.1-7.8-.7-22.3-.7-22.3 5.5-1.6 10.3-6.2 10.3-6.2 7.3 5.1 10.3 8.5 29.8 13.5 12.7 3.2 29.1.2 41.8-5.4 2.7-1.9 5.9-3.4 8.5-5.9z" fill="url(#a)"/><path d="M152.7 280c.7-1.1 1.5-2.3 2.4-3.3 1.3-1.5 2.6-3 4.2-4.1.3-.2 2.6-1.9 3.5-2.4.9-.4 1.2-.6 1.7-.8.5 1.3 1.8 4.5 2.2 5.8 3-3.9 8.3-6.8 13.1-7.1.5.8 2.5 3.7 3.4 4.8 4.1 4.2 4.6 4.6 8.3 7 2.5-3.3 5-6.6 7.7-9.7-9.4-12.3-18.3-24.7-20.3-29.7-4.6-11.3-34.5 21.8-29.2 31.4 1.4 2.7 2.4 5.4 3 8.1z" fill="url(#b)"/><path d="M177.2 362.4c10-13.3 11.9-32.1 9.1-46.4 0-.2 0-.3.1-.4 0-.3-.1-.5-.1-.7-.2-.1-.3-.3-.5-.4-.1-.1-.1 0-.1-.1-4.3 1.8-8.9 2.8-13.4 3.6 0 .1-.1.1-.1.2h.1c1.2 8-1.2 21.3-1.2 21.3-5.5 27.8-33.5 23.3-33.5 23.3s2.5 4 3.2 4.6c9.1 8.2 29 4.4 36.4-5z" fill="url(#c)"/><path d="M201.7 333.7c-1.9-1.4-5.4-.2-7.3-.1-5.5 3-11.6 12.5-8.8 18.5 13.9-1.6 16.2-1.3 19.2-5 3.1-3.8.8-10.8-3.1-13.4z" fill="url(#d)"/><path d="M111 367.5c12.3-8.5 12.5-10.2 25.1-16.7 6.1-3.2 10.3-5.6 16.1-10.4 3.8-3.2 6.8-6.8 9.9-10.7 3.9-4.7 6-9.8 6.1-11.1-5.9.2-14.8 0-20-2.8-3.5 9.9-15 16.8-37.3 35.9C88 371.2 87.4 381 90.1 402c2.7 20.8 16.7 31.2 16.3 30.7-.3-.4-5.2-14.7-8-29-3.5-17.6 3.2-29.7 12.6-36.2z" fill="url(#e)"/><path d="M223.1 318c-1.3-.2-2.5-.3-3.7-.7-.2-.1-.4-.2-.5-.4-1.7-.5-3.2-1.2-4.4-2.5-.8-.8-1.5-1.7-2.2-2.5-2.6-2.8-3.5-6.9-3.6-11.2-.1-1.4-.1-2.7 0-3.9 0-.6 0-1.2.1-1.8-.9-3.2 1.1-5.7 3.8-7.5l-3.3-4.2c-.4.8-.8 1.7-1.2 2.5-.3 5.2-1.1 7.9-3.6 12.2-1.8 2.5-3.4 4.8-5.1 6.8-.9.9-2.1 2.4-2.7 3.1 6.7 4.8 10.2 8.2 26.8 12.7-.2-.9-.3-1.7-.4-2.6z" fill="url(#f)"/><path d="M73.5 231.2c-9.2-22-5.9-32-1.3-39.5h.1c.5-.8 1-1.6 1.5-2.3 4.8-7.1 15.5-14.2 18.2-20.3.3-.7 1-1.4 1.1-2.1.7-6.6-2.8-20.7-12.1-21.5-1.1-.3-4.1-.4-5.3-.2 0 0 8 2.3 9.6 8.7 1 3.8.9 9.4-3.4 13.8-1 1-2.2 1.9-3.6 2.8-2.6 1.5-8 3.4-12.7 7.9-2.8 2.6-7.6 8.6-9.6 13.6-2.8 6.8-3.7 13.6-2.9 22.2.6 7.3 5.9 15.5 9.6 20.7 8.1 11.5 34.8 26.9 56.8 19.1-.1-.1-35.7 1.7-46-22.9z" fill="url(#g)"/><path d="M313.3 265.5s.9 5-4.4 4.6c-3.2-.4.5-5.3-1.2-8.7-1.8-3.4-1.4-6.9-10.8-6.2-9.4.8 16.2-10 16.4 10.3" fill="url(#h)"/><path d="M22.8 273.9s9-.6 21.6 6.1c12.8 6.8 18.4 10.9 36.6 10 18.2-.9 19.3-10.2 18.1-10.4-1.2-.2-26.2.9-37.8-4.5-11.6-5.4-25.3-7.3-38.5-1.2" fill="url(#i)"/><path d="M74.4 356.3c-1.6-6.8-7.3-8.4-9.6-7.4 1.4 2.4 2.8 4.8 3.6 7.2 1 3.2 1.4 6.6.8 13.6-.2 2.8-1.7 5.7-3 7.2-1.8 2.2-4.1 4.3-7 4.8-2.1.4-4.2.7-6.4.5-7.1-.4-9.8-7.8-10.4-9.4-1-2.5-2.1-5.1-4.7-4.6-1.1.2-1.8 1-2.1 1.7-.7 1.5-.6 3.2-.6 4.7.1.7.2 1.2.2 1.2 6.6 17.5 24.6 15.8 34.5 9.9 9.9-5.7 7.1-19.2 4.7-29.4z" fill="url(#j)"/><path d="M171.1 300.6s1.2-11.2 0-15.8c0 0 4.6 7.8 9.9 10.5 0 0-3 3.9-9.9 5.3z" fill="#B75978"/><path d="M197.4 348.6s0-4.3-2-4.8c-1.5-.4-4 1.4-2 4.6.1.2.1.1.1.1s1.9.5 3.9.1" fill="url(#k)"/><path d="M134.5 39.4s-21.3-9.4-30.2 6.1C95.4 61 102.4 75.3 89.7 79c0 0 19.8 9.9 39.7-1.9 19.9-11.8 5.1-37.7 5.1-37.7z" fill="#F0877F"/><path d="M176.4 294.2l-5-7.2c.2 5.2-.4 13.6-.4 13.6 3.6-.7 6.2-2 7.8-3.2l-2.4-3.2z" fill="url(#l)"/><path d="M134.5 39.4s-3.1-1.4-7.5-2.2c-4.3 7.4-6.1 17.2-6.2 25.2 0 5.8.7 12.2 2.2 17.9 2.1-.8 4.2-1.8 6.3-3 19.8-11.9 5.2-37.9 5.2-37.9z" fill="#CE6C6A"/><ellipse fill="#FECDC5" transform="rotate(23.635 242.578 279.876)" cx="242.578" cy="279.876" rx="1.2" ry="2.4"/><path d="M264.3 176.2c-7.3-3.3-14-9.7-14-14.5 0-4.8 6-8.7 6-8.7-14.2-2.1-16.3 24.5-5.3 30.8 11 6.4 15.4 12.8 17.7 26.6 2.3 13.8-3.7 32.6-28.5 37-5.7 1 .7 3-3.8 4.7l8.6 7.2-.3-.6c27.6-5.1 35.2-25.4 37-45.7 1.8-20.3-10.1-33.4-17.4-36.8z" fill="url(#m)"/><path d="M248.1 162.9c1.1-.2 1.4.9 1.7 2.5.3 1.6.7 3-.3 3.2-1 .2-3.4-.7-3.7-2.3-.3-1.6 1.2-3.2 2.3-3.4z" fill="url(#n)"/><path d="M252.8 253.2c.5 1.3-.4 2.8-2 3.5-1.6.6-3.3.1-3.8-1.2s.4-2.8 2-3.5c1.6-.6 3.3 0 3.8 1.2z" fill="url(#o)"/><path d="M261 247.9c.8 1.2.4 2.9-1 3.9s-3.2.8-4-.4c-.8-1.2-.4-2.9 1-3.9 1.4-.9 3.2-.7 4 .4z" fill="url(#p)"/><path d="M267.5 241.5c1.2 1 1.2 2.9 0 4.3-1.2 1.3-3 1.6-4.2.6-1.2-1-1.2-2.9 0-4.3s3.1-1.7 4.2-.6z" fill="url(#q)"/><path d="M273.3 233.3c1.4.9 1.7 2.8.7 4.3s-2.9 1.9-4.3 1c-1.4-.9-1.7-2.8-.7-4.3s2.9-1.9 4.3-1z" fill="url(#r)"/><path d="M275.2 224.2c1.6.4 2.6 2.1 2.2 3.8-.4 1.7-2 2.8-3.6 2.4-1.6-.4-2.6-2.1-2.2-3.8.3-1.7 2-2.8 3.6-2.4z" fill="url(#s)"/><path d="M277 215.3c1.6.2 2.8 1.7 2.6 3.4-.2 1.7-1.7 2.9-3.4 2.7-1.6-.2-2.8-1.7-2.6-3.4.2-1.7 1.7-2.9 3.4-2.7z" fill="url(#t)"/><path d="M277.2 205.8c1.7 0 3.1 1.5 3.1 3.2 0 1.8-1.4 3.2-3.1 3.2-1.7 0-3.1-1.5-3.1-3.2 0-1.8 1.4-3.2 3.1-3.2z" fill="url(#u)"/><path d="M118.8 323.5c1.6-21.7 7.9-32.2 12.8-37.3 0-.9 0-2.1.1-2.8.1-.8.3-4.4.3-4.4l2.3-.9 3 3.6s.1-19.4-22.8 10.2c0 0-13.7 17.2-9.4 47 4.3 29.8 17.2 60 23.9 67.8 6.6 7.8 10.2 4.7 7.1-2.4-3.2-7.1-19.9-45.6-17.3-80.8z" fill="url(#v)"/><path d="M275.5 196.9c1.6-.4 3.2.7 3.6 2.4.4 1.7-.6 3.3-2.2 3.7-1.6.4-3.2-.7-3.6-2.4-.4-1.7.6-3.3 2.2-3.7z" fill="url(#w)"/><path d="M271.1 188.5c1.5-.8 3.3-.2 4.2 1.4.8 1.6.4 3.5-1.1 4.2-1.5.8-3.3.2-4.2-1.4-.8-1.5-.3-3.4 1.1-4.2z" fill="url(#x)"/><path d="M263.9 182.1c1-1.4 2.9-1.6 4.3-.6s1.8 2.9.9 4.3c-1 1.4-2.9 1.6-4.3.6s-1.8-2.9-.9-4.3z" fill="url(#y)"/><path d="M256.4 176.8c.9-1.3 2.8-1.6 4.3-.5 1.4 1 1.9 2.9 1 4.2-.9 1.3-2.8 1.6-4.3.5s-1.9-2.9-1-4.2z" fill="url(#z)"/><path d="M250.8 170.1c1.1-.8 2.4-.3 3.4 1.1.9 1.3 1.1 2.9 0 3.7-1.1.8-2.7.3-3.7-1-.9-1.3-.8-3 .3-3.8z" fill="url(#A)"/><ellipse fill="#FFC2D6" transform="rotate(43.282 239.015 285.708)" cx="239.015" cy="285.708" rx="1.2" ry="2.4"/><path d="M307.8 248.4c-.4-.2-.9-.3-1.3-.5-7.8-2.2-24.1-2.4-29.7 3.9-5.8 6.5-6.6 16.6-4.6 26.4 1.8 8.9 1.9 13.5-.5 16.9-.8 1.5-1.9 2.9-3.3 3.9-2.3 2.2-5.4 3.7-8.6 4.6-1.4.4-3 .7-4.5.8-13.3 2.9-30.8-6.2-30.8-6.2l-.1.1-1.8-7.2c-2.6-9.5-10.7-19.2-17.9-26.4 1-1.3 2.1-2.4 3.3-3.1 7.8-5.2 25.5-12.5 33.3-2.4 7.8 10.2 4.3 23.1-4.3 26.5-4.5 2.1-6.4 4.7-5 5.9 1.4 1.2 8 .5 13.9-6.1s9.1-18.1-.7-29.3c-1.6-1.8-2.1-2.8-4.2-4 8.3-1.8 23.9-10.5 28-26.7 4.1-18.7 2.7-24.6-1-31-1.3-3.3-3.9-5.3-5-5.8-13.3-6.8-15.3-12.6-14.5-18 0-.8 0-1.6.2-2.5.5-3 1.3-6.6 3-9.4 1.8-4 5.3-6 10.8-6.3 8.2-.5 17.1 4.6 22.7 10.2 7.1 7.1 8.5 16.6 12.5 25.4 6.4 12.3 18.5 16.8 18.5 16.8-5.2-4.7-3.1-19.1-1.2-25.5 1.9-6.4.9-16.5-4.3-27.6-5.2-11.1-8.5-15.1-32.1-16.5-23.6-1.4-34.3 6-38.6 17.6-4.8 13-.6 27.3 10.8 33.7 3.7 2.1 8.1 6.1 10.6 8.5 5.3 6.9 6.4 18.4 2.2 29.5-4.3 11.3-17.7 19.7-35.7 19.2-17.9-.5-31.6-7.9-34.2-19.2-2.3-10.1.6-30.2 1.3-34.4 5.8-5.6 7.3-9.3 6.2-16 .3.1.7.1 1 .1 3.7 0 5.7-2.9 5.7-6.5s-2.1-6.7-5.7-6.7c-2.1 0 2.4-7.1 1.2-5.7.2-5.9-1-10.2-.9-15.6.5-.8 1-2.5 1-2.5s6.8-9.9-2.6-14.9c0 0 3-18.8-12.5-36.6-11.7-14.5-13.7-26.5-13.7-26.5s15.6-3.1 23.1-15.6c7.6-12.5 9.9-25-4.7-36.6-14.6-11.6-24.8-5.7-37.3 1.7-12.5 7.3-35.4 29.8-28.3 77.2 3.5 20.5 6.4 29.5 8.7 35 0 0-11.4 6.1-4.8 17.7 1.2 2.1-.3 5.6-.6 8.5l1.4 8.8c-1.3-1.4 3.2 5 1.2 5-3.8 0-5.8 3.1-5.8 6.8 0 3.8 2.1 6.8 5.8 6.8.4 0 .7-.1 1.1-.1 0 2.5.5 7.4 3.5 12 .3 5.8.3 28.6-6.7 37.3-8 9.9-22.8 20.6-39.7 13.6-15.4-6.4-19.4-17.4-20.2-30.9-.8-14.6 6.4-19.5 17.7-25.9 11.3-6.4 14.3-19.4 9.6-32.4-4.7-13-15.9-22.9-35.5-21.9-19.8 1-28.4 7.2-33.6 18.3-5.2 11.1-6.1 21.3-4.3 27.6 1.8 6.3 4 20.8-1.2 25.5 0 0 12.1-4.5 18.5-16.8 3.9-8.8 5.4-18.3 12.5-25.4 5.6-5.6 14.5-10.7 22.7-10.2 5.5.3 9.2 2.9 11.3 6 1.9 2.7 2.5 4.9 2.8 7.9.6 6.4-1.3 15.5-14.6 22.3-16.9 9.8-16.3 32.6-10.2 44.4 2.7 5.2 22.9 43.9 60.5 24.1 0 0-7.5 9.6-16.2 17.2-4.2 5-11 7.4-17.3 8.2-4 .5-11.8 1.4-20.9.3-8.9-1.1-16.1-4.8-24.1-8.6-9.9-4.6-21.3-3.6-31.5-.7-4.7 1.3-9.1 2.9-12.4 6.9-1.9 2.3-2.9 4.8-3.6 7.6-.2 1.8-.2 3.7-.1 5.8.9 16.8 7.3 20.8 18.4 22.9 11.1 2.1 15.1-3.3 17-7.6 1.9-4.3-2.1-7.1-6.6-3.5 0 0-.1 0-.1.1-2.2 1.8-4.5 2.7-6.9 2.5-.7.1-1.4.1-2.1-.1-3.8-.6-6.9-3.5-8.6-6.8-4.2-8.1-1.3-16.5 7.4-18.9.4-.2.8-.3 1.3-.5 12.8-4 20.1-4.5 39.7 2.6 13 5.2 33.3 3.5 33.3 3.5h.1c-.3.2-.7.3-1 .5 0 0-18.9 5.6-32.2 13.4-.1.1-5.5 4.3-7.3 7.4-1.4 2.5-2.1 5.9-2.5 8.7-1.1 7.7 1.2 16 4.6 23 3.1 6.6 8 13 11.5 19.4 3.2 6 5.8 10.9 5.8 16.4 0 8-4.7 16.2-12.6 18-8.5 1.9-21.2 1.2-25.6-14.1-.1 1.4 0 2.8.2 4.2.8 3.9 3.1 9.8 9.6 12.5 6.9 2.8 19.1 4.6 27.3-2.7 6.1-5.2 8.4-11.6 8.8-14.8.6-4.1 1.3-7.9.8-11.3-1.1-6.8-2.8-11.2-7.8-19.7-2.4-3.9-5.6-7.6-7.7-11.6-1.7-3.1-3.2-5.9-2.6-10.1 1.4-11.3 13.7-11.1 22.4-14.4 8.7-3.3 37.6-14.1 45.9-26.1 0 0 .9 15 17.6 22.6 16.8 7.6 32.4 1.7 39.2-7.6 2.9-3.9 5.5-9.6 8-15.2 3.2 2.7 6.3 5.5 9 8.8 11.1 13.5 11.6 31.6 9.4 40.6-1.9 8-6.4 12.6-7.4 13.4-.5.5-.9 1-1.2 1.5-2 2-6.6 5.9-11.5 5.3h-.3c-3.2-.1-6.9-2.1-7.2-5.7-.1-2.3.7-5.4 3-6.4.5-1 1.4-1.9 2.8-2.6 2.9-1.5 6.8-3.3 9.2.1.2.3 3.1 3.1 3.4 2.6-2-10.1-14.2-6.9-17.6-4-3.4 2.8-16.3 17 1.4 26.5 1.3.7 2.6 1.3 3.8 1.7-1.3 1.5-5.4 6-8.3 6.6-3.5.7.7 4.5 4.7 3.1 3.3-1.2 8.8-6.3 12.1-9.9 9.4-1.4 15-10.1 20.7-20.1 5.7-10 5.5-22.5 3.1-35.4 6.6 3.2 20.1 7.8 35.1 2.1 21.3-8 22.2-26.2 22.2-30.9 0-4.7-5-19.1 12.8-21.7 15.7-2.3 17.1 9.6 17.2 12.2 0 .1.1.2.1.3 2.2-4.6 2.3-13.6-5.5-19.1zm-138 51.7c-17.9 2.8-23.2-9.7-22-22.1 1.2-12.4 21.3-27.5 27.8-34.5 0 0-1.9 21.1 16.3 32.2.1-.1-4.2 21.5-22.1 24.4zm31-39c-4.3-4-7.7-6.9-8.4-7.4 2.1 1.2 4.3 2.4 6.6 2.8 1.7.3 3.8.2 7.2-.1-.7.4-2.3 1.3-2.7 1.8-1 .8-1.9 1.8-2.7 2.9z" fill="url(#B)"/><path d="M203 278.7c-.6 1.7-1.1 3.4-1.7 5.1 1.5 1.4 2.9 2.9 4.3 4.6 3.2 3.9 5.2 6 6.8 10.3 1.3-3.9 1.9-6 2.7-10.2.5-2.8 1.7-5.2 2.8-7.7-2.9-4.6-6.5-9-10.2-12.9-2.2 3.2-3.4 7-4.7 10.8z" fill="url(#C)"/><path d="M92.2 408.3c-4.4-17.5-1.8-36.3 13.1-48.9l2.1-2.1c-.7-2-1.2-3.9-1.5-6-9.9 8.9-18.3 22-19.8 36.2-2.1 19.6 2.8 35 10.9 43 8 8 10.6 5.4 9.4 2.1 0 0-9.7-6.3-14.2-24.3z" fill="url(#D)"/><path d="M119.4 345.6c3.9-3.6 8.2-7.1 11.9-10.8-1.1.6-2.5 1.8-3.6 2.3-2.8 1.9-5.9 3.6-8.6 5 0 1.2 0 2 .3 3.5zM187.2 334.2c1.2-1.1 3.3-2.4 5-3.1 0-11-2.6-18.2-2.6-18.2l-4.1 1.6c.4 1.8.8 3.4 1 5.7.7 4.7 1 9.3.7 14z" fill="#B75978"/><path d="M182.9 353.2c-.2-.1-.5-.2-.8-.3-1.3 4.1-3.8 7.6-7 10.5-3 3.4-6.9 5.8-12 6.7-12.8 2.4-21.5.5-26-8.5s2.8-11.8 5.2-12.5c2.4-.7 3.8-9.7-7.8-3.3-11.6 6.4-3.5 23.9 6.4 29.3 9.9 5.4 35.7 4.3 45.5-17.7 0-.1-.6-2.2-.5-2.3-1.2-.6-2.2-1.2-3-1.9z" fill="url(#E)"/><path d="M176 232c-1.3 2.6-3.4 5-5.1 7.4-3.9 5.2-8.5 9.9-12.7 14.9-5.9 7-14.5 15.7-14.7 25.3-.1 2.5.7 5.1 1.6 7.6 4.4 12 14 13.3 17.7 13.3 0 0-17-1.1-14.7-22.1 1.4-11.7 20.6-28.1 27.5-34.5 0-.1-.4-2.7.4-11.9z" fill="url(#F)"/><path d="M97.1 274.9c-4.8 2.8-9.2 4.6-14.6 5.8-.5.2-1.4.1-1.9.3 7.7.2 13.6 0 13.6 0s9-4 14-10.8c-3.5 2.4-7.2 3.9-11.1 4.7z" fill="url(#G)"/><path d="M35.6 297.2c.9.9 1.2 2.1-.2 3.7-.8 1-1.8 1.8-2.8 2.5-.5.5-1.2.9-1.8 1.3-5.9 4.4-14.6 3.6-20.2-.4C3 298.9.3 288.7 1.7 279.7c-.2.6-.3 1.2-.5 1.8-3 19.3 4.5 24.7 13.3 27.8 9.6 3.4 16.2 1.3 21-4 5.1-6.2.1-8.1.1-8.1z" fill="url(#H)"/><path d="M198.7 275.6c-.7 1.5-1.4 3-2.3 4.4 23.3 18.1 19.4 44.9 19.4 44.9 5.4-22-4.5-41.1-17.1-49.3z" fill="url(#I)"/><path d="M257.5 242.4c-3.4 2.7-7.7 5-11.9 6.4-2 .7-5.1 2-6 1.5-3.1-1.6-6.6-1.8-10.1-2-.8 0-1.6.1-2.4.1-3.3.4-6.6 1-10 1.9-3.8 1.1-7.8 1.3-11.6 0-3.6-1.2-7.4-3-10.2-5.6-2.6-2.4-4-5.3-5.8-8.3-.2 4.2-.2 14.1 2.4 16.8 2.1 2.3 5.8 4.5 13.7 3.5 0 0 20-13.5 35.8-4.4 0 0 19.8-4 27.2-25-2.8 5.6-6.1 11.2-11.1 15.1z" fill="url(#J)"/><path d="M203 331.9c-5.9-4.3-14.3 2.8-17.1 8.1-2.1 3.9.4 7.3 4.6 9.3 3.5 1.2 7.2.3 10.5-1.5-3 .9-5.3 1.2-7.5.6-2.5-.3-4.3-2.3-4.4-4.5.1-2.7 3-5.5 6.1-5.7 2.9-.2 4.5 3.8 3.5 10.7 0 0 3.2-1.1 5.8-3.1 1.8-1.4 2.2-2.2 2.2-2.2s.1-8.9-3.7-11.7z" fill="url(#K)"/><path d="M155.8 183.2s11.9 5.5 25.7.5c0 0-8.5 13.1-25.7-.5z" fill="#B75978"/><path d="M149.5 115.8c-4.7-.8-10.2-.5-14.9 1.5l1.5 3.9s10.1-4.6 22.7.9c.1-.1-2.2-4.3-9.3-6.3z" fill="url(#L)"/><path d="M178.6 118.7c-1.7 1.2-3.1 4-3.1 4 14.3-5.6 25.3-.2 25.3-.2.4-.8.2-4.5.2-5.8-7.4-3.1-17.5-1.6-22.4 2z" fill="url(#M)"/><path d="M291.4 251.5c-12.9 2.7-13.5 12.4-12.9 23.7.5 11.3-5.1 27.9-23.2 29.2h-.5c-2.6.3-5.3.2-8-.1-15.4-1.1-22.7-7.7-22.7-7.7l1.8 9s6.6 3.8 15.7 4.9c3.2.3 5.8.5 9 .4 6.3-.1 14.2-1.1 19.7-4.7 7.8-5.1 11.5-14.8 12.8-23 0-.1.1-.2.1-.4 2.8-12.8-4.4-23.3 10.7-26.7 14.4-3.2 18.3 4.6 19.1 10.3.1.2.1.3.2.5.5-2.5 3.3-20.8-21.8-15.4z" fill="#B75978"/><path d="M202.9 356.5c-4.2 1-8.4.5-12-.4-4.1-1.2-9-3.6-10.3-8.3 0 0 0 10.9 12 13.4.5.1-1.9-.5-1.9-.5-1.5 1.9-3.6 4.8-5.8 5.1-2.2.4-3.6 4.8 2.1 5.8 5.8 1 14.4-9.7 14.4-9.7 10 .2 20.4-19.2 20.4-19.2s-8.3 11.3-18.9 13.8z" fill="url(#N)"/><path d="M47.5 152.4c-9.6 13.8-6.4 36.2-23 44.8-.2.2-.3.4-.5.6 0 0 12.1-4.5 18.5-16.8 3.9-8.8 5.4-18.3 12.5-25.4 5.6-5.6 14.5-10.7 22.7-10.2 1.9.1 5.1.6 7.7 2.4-1.3-1.1-4.8-4.5-9.2-6-9.2-3.2-21.4 0-28.7 10.6z" fill="url(#O)"/><path d="M292.5 161.2c-6.3-6.9-18.2-10.1-28.8-8.6 7.9.1 16.2 4.9 21.5 10.3 7.1 7.1 8.5 16.6 12.5 25.4 3.4 6.5 8.3 10.8 12.3 13.4-3.9-4.1-6.3-9.4-8.1-14.9-1.5-4.6-2.6-9.3-4-13.9-1.2-4.1-2.5-8.6-5.4-11.7z" fill="url(#P)"/><path d="M198.9 256.4c-2.2-.4-4.4-1.2-6.5-2.5.7.5 4.1 3.2 8.3 7.1.8-1.1 1.7-2.1 2.6-3 .5-.4 2.3-1.2 2.7-1.6-3.2.4-5.3.3-7.1 0zM175.7 243.4c-6.6 7.1-26.6 22.1-27.8 34.5-1.2 12.4 4.1 25 22 22.1 17.9-2.9 22.1-24.4 22.1-24.4-18.3-11.1-16.3-32.2-16.3-32.2z"/><path d="M178.6 98.9s-10.6-10.2-27-5.4C136.9 97.8 138 110 138 110s7.8-14.4 40.6-11.1z" fill="url(#Q)"/><path d="M163.6 74.8s-9.8-9.1-23-3.9c-11.2 4.4-7.8 15.8-7.8 15.8s6.7-16 30.8-11.9z" fill="url(#R)"/><path d="M156.4 56.3s-8-9-21.3-4.8c-9 2.8-6.9 12.9-6.9 12.9.5.3 6.2-11.1 28.2-8.1z" fill="url(#S)"/><path d="M153.1 39.1s-6.6-7.3-20.2-4c-.9 1.9-1.7 3.8-2.4 5.9 9-3.8 22.6-1.9 22.6-1.9z" fill="url(#T)"/><path d="M152.3 23.1s-1.4-5.9-6.9-6c-1.2 1.2-2.4 2.5-3.6 3.9 6.6-.1 10.5 2.1 10.5 2.1z" fill="url(#U)"/><path d="M192.6 34.4s5.4.8 9.6.2c1.2-3.5 1.7-7 1.4-10.5-.9 2.7-3.9 9.8-11 10.3z" fill="url(#V)"/><path d="M181.9 43.9s3.1 5.6 8.5 8.1c2.2-1.7 4.4-3.9 6.2-6.4-1.6.4-8.3 2-14.7-1.7z" fill="url(#W)"/><path d="M174.6 59.6s-4.7-16.7 4.4-33.3c0 0-5.7 14.5 4.3 30.1-.1 0-3.7 1.8-8.7 3.2z" fill="#D87575"/><path d="M198.9 256.4c-2.2-.4-4.4-1.2-6.5-2.5.7.5 4.1 3.2 8.3 7.1.8-1.1 1.7-2.1 2.6-3 .5-.4 2.3-1.2 2.7-1.6-3.2.4-5.3.3-7.1 0zM175.7 243.4c-6.6 7.1-26.6 22.1-27.8 34.5-1.2 12.4 4.1 25 22 22.1 17.9-2.9 22.1-24.4 22.1-24.4-18.3-11.1-16.3-32.2-16.3-32.2z"/><path d="M45.7 141.2c-5.8-4.1-10-3.9-12-3.4-1 1.4-2.3 3-3.2 4.8 6.2-1.8 15.2-1.4 15.2-1.4z" fill="url(#X)"/><path d="M28.6 146.7c-.6 1.3-1.2 2.8-1.6 4.1 4.8-1.7 10.3-2.4 10.3-2.4-3.8-1.9-6.7-2-8.7-1.7z" fill="url(#Y)"/><path d="M25.5 155.7c-.3 1.2-.5 2.4-.7 3.5 3.8-2 8.4-3.2 8.4-3.2-3.5-1.1-6-.8-7.7-.3z" fill="url(#Z)"/><path d="M294.5 148.3c5.8-4.1 10.5-3.8 12.5-3.3 1 1.4 1.8 2.9 2.7 4.7-6.2-1.8-15.2-1.4-15.2-1.4z" fill="url(#aa)"/><path d="M311.7 153.9c.6 1.3 1.1 2.7 1.5 4-4.8-1.7-10.3-2.4-10.3-2.4 3.8-1.8 6.8-2 8.8-1.6z" fill="url(#ab)"/><path d="M314.7 162.9c.3 1.2.5 2.4.7 3.5-3.8-2-8.4-3.2-8.4-3.2 3.5-1.1 6-.8 7.7-.3z" fill="url(#ac)"/><path d="M177.5 168.6s1.3.3 2.7 1.1l.1.3c0 1-.6 1.4-1 1.6-1.2.5-6.2 1.7-13.2.4 0 0 4.6 3.1 12.2 1.6 0 0 .6-.1 1.3-.4.3-.1.7-.3 1-.5.2-.1.3-.2.5-.4l.1-.1c.3-.4.6-.9.7-1.8.8.6 1.6 1.2 2.2 2.3-.1 0-.5-5.8-6.6-4.1z" fill="url(#ad)"/><path d="M178.6 310.2c.4 2.2-1.2 4.4-3.7 4.9s-4.9-.9-5.3-3.2c-.4-2.2 1.2-4.4 3.7-4.9s4.9.9 5.3 3.2z" fill="url(#ae)"/><path d="M179.4 319c2.3-.2 4.3 1.7 4.5 4.2.2 2.5-1.4 4.8-3.7 5-2.3.2-4.3-1.7-4.5-4.2-.2-2.5 1.4-4.8 3.7-5z" fill="url(#af)"/><path d="M204 303.7c1.4-2.3 4.5-2.9 7.1-1.4 2.6 1.5 3.5 4.6 2.2 6.9-1.4 2.3-4.5 2.9-7.1 1.4-2.6-1.5-3.5-4.6-2.2-6.9z" fill="url(#ag)"/><path d="M180 331.6c2.3.2 4 2.6 3.7 5.2-.3 2.6-2.4 4.6-4.7 4.4-2.3-.2-4-2.6-3.7-5.2.4-2.7 2.4-4.7 4.7-4.4z" fill="url(#ah)"/><path d="M177.8 344.3c2.2.8 3.2 3.4 2.3 5.9-.9 2.5-3.4 3.9-5.6 3.1-2.2-.8-3.2-3.4-2.3-5.9.9-2.5 3.4-3.9 5.6-3.1z" fill="url(#ai)"/><path d="M172.2 355.5c1.6 1.6 1.4 4.5-.4 6.4-1.9 1.9-4.7 2-6.4.4-1.7-1.6-1.4-4.5.4-6.4 1.9-1.9 4.8-2.1 6.4-.4z" fill="url(#aj)"/><path d="M162.4 363.5c.6 2-.7 4.1-2.8 4.7-2.2.7-4.4-.4-5-2.3-.6-2 .7-4.1 2.8-4.7 2.2-.7 4.4.3 5 2.3z" fill="url(#ak)"/><path d="M153.3 366.6c-.1 1.7-1.8 3-3.8 3-2-.1-3.6-1.5-3.6-3.2.1-1.7 1.8-3 3.8-3 2.1 0 3.7 1.5 3.6 3.2z" fill="url(#al)"/><path d="M165.8 312.8c-.2 2.3-2.4 3.9-4.9 3.8-2.5-.2-4.5-2.2-4.3-4.4.2-2.3 2.4-3.9 4.9-3.8 2.6.2 4.5 2.1 4.3 4.4z" fill="url(#am)"/><path d="M152.8 311.2c-.9 2-3.4 2.7-5.7 1.7-2.3-1-3.4-3.4-2.5-5.4.9-2 3.4-2.7 5.7-1.7 2.3 1 3.4 3.4 2.5 5.4z" fill="url(#an)"/><path d="M142.3 304.6c-1.3 1.3-3.5 1.1-5-.4s-1.6-3.7-.4-5c1.3-1.3 3.5-1.1 5 .4 1.6 1.5 1.7 3.8.4 5z" fill="url(#ao)"/><path d="M135.1 297.1c1.2-.9 1.1-2.8.1-4.5-.8-1.4-2-2.2-3.2-2.1 0 0 .3 3.6 1.4 6.9.5.1 1 0 1.7-.3z" fill="url(#ap)"/><path d="M229.9 253.8c-12.5-1-19.7 5.7-22.9 8.5-5.3 4.6-11.9 21.1-11.9 21.1s-9.5 31.1-3.5 28.3c5.9-2.8 13.6-9.7 15.4-19.7.9-4.9 2.4-10.3 3.7-14.4 1.7-3.7 5-9.7 11.4-12.3 3.8-1.6 8.2-1.4 11.9-.7 3.5 1.4 6.9 4.1 7.2 9.7.4 6.8-5.3 12.2-5.3 12.2s7-1.7 9.2-9.8c2.5-8.3.5-21.7-15.2-22.9z" fill="url(#aq)"/><path d="M191.2 303.1c1.4 1.9.7 4.8-1.4 6.3-2.2 1.5-5 1.2-6.4-.7-1.4-1.9-.7-4.8 1.4-6.3 2.2-1.6 5-1.2 6.4.7z" fill="url(#ar)"/><path d="M199.8 291.6c2.1 1.3 2.6 4.3 1.1 6.7-1.5 2.4-4.4 3.3-6.5 2-2.1-1.3-2.6-4.3-1.1-6.7 1.5-2.5 4.4-3.3 6.5-2z" fill="url(#as)"/><path d="M238.4 316.6c-.5 2.2-2.8 3.6-5.3 3.1s-4.1-2.7-3.7-4.9c.4-2.2 2.8-3.6 5.3-3.1s4.1 2.7 3.7 4.9z" fill="url(#at)"/><path d="M251.2 316.8c.1 2-1.6 3.7-3.8 3.9-2.3.2-4.2-1.3-4.4-3.3-.1-2 1.6-3.7 3.8-3.9 2.2-.2 4.3 1.3 4.4 3.3z" fill="url(#au)"/><path d="M262.7 318.1c.4-.7.6-1.6.5-2.4-.4-2-2.5-3.2-4.7-2.8-2.2.4-3.7 2.3-3.4 4.3.2 1.1 1.1 2.1 2.1 2.6 2.2-.6 3.2-.9 5.5-1.7z" fill="url(#av)"/><path d="M267.4 316.3c2.3-.9 4.7-2.4 6.7-3.9 0-.2-.1-.5-.2-.7-.8-1.8-3.2-2.6-5.2-1.6-2.1.9-3.1 3.2-2.3 5 .2.4.6.8 1 1.2z" fill="url(#aw)"/><path d="M281.9 304.1c-.2-.3-.4-.5-.6-.7-1.6-1.3-4-.9-5.4.9-1.4 1.8-1.3 4.2.2 5.5.2.2.5.3.7.4 2-2 3.6-3.2 5.1-6.1z" fill="url(#ax)"/><path d="M284.4 297.1c.2-1.3.4-2.7.5-4-1.5.1-2.9 1.2-3.5 2.9-.7 2 .2 4.1 1.9 4.9.4-1.3.9-2.6 1.1-3.8z" fill="url(#ay)"/><path d="M284.9 284.4c-.5.6-.9 1.4-1 2.4-.1 1.3.3 2.6 1.1 3.4.2-2.2.3-3.8-.1-5.8z" fill="url(#az)"/><path d="M170.7 248.5c-1.3 1.2-2.7 2.5-4 3.7-.9.8-1.8 1.8-2.8 2.7 1.1 1 2.8 1.7 4.4 1.4 2.5-.5 4.1-3 3.5-5.6-.2-.7-.7-1.6-1.1-2.2z" fill="url(#aA)"/><path d="M157.2 262.1c-1.1 1.4-2.3 2.9-3.4 4.3-.7.9-1.5 2.2-2.2 3.2 1.2.9 3 1.2 4.5.7 2.4-.9 3.5-3.6 2.6-6.1-.2-.7-.9-1.6-1.5-2.1z" fill="url(#aB)"/><path d="M168 260.2c2.2-1 4.9 0 5.9 2.4 1.1 2.3.1 5-2.1 6s-4.9 0-5.9-2.4c-1.1-2.3-.2-5 2.1-6z" fill="url(#aC)"/><path d="M173.8 272.5c2.1-1.2 4.8-.3 6.1 1.9 1.3 2.2.5 5-1.6 6.2-2.1 1.2-4.8.3-6.1-1.9-1.2-2.3-.5-5 1.6-6.2z" fill="url(#aD)"/><path d="M160 275.3c2.4-.4 4.7 1.3 5.1 3.8.4 2.5-1.1 4.9-3.5 5.3-2.4.4-4.7-1.3-5.1-3.8-.4-2.5 1.1-4.8 3.5-5.3z" fill="url(#aE)"/><path d="M162.5 287.8c2.4 0 4.4 2 4.5 4.5 0 2.5-1.9 4.6-4.3 4.7-2.4 0-4.4-2-4.5-4.5 0-2.5 1.9-4.6 4.3-4.7z" fill="url(#aF)"/><path d="M156 321.3c2.1 1.3 2.6 4.1 1.3 6.2-1.3 2.1-4.1 2.8-6.2 1.5-2.1-1.3-2.6-4.1-1.3-6.2 1.4-2.2 4.2-2.8 6.2-1.5z" fill="url(#aG)"/><path d="M147.6 331.1c1.5 1.8 1.1 4.6-.8 6.2-2 1.6-4.8 1.4-6.3-.4-1.5-1.8-1.1-4.6.8-6.2 2-1.6 4.8-1.4 6.3.4z" fill="url(#aH)"/><path d="M136.6 344.6c.8-.4 1.5-.7 2.3-.9.7-1.4.7-3.1-.3-4.4-1.4-2-4.2-2.5-6.3-1-2.1 1.4-2.7 4.2-1.3 6.2.6.9 1.5 1.4 2.5 1.7 1-.7 2.1-1.1 3.1-1.6z" fill="url(#aI)"/><path d="M128.7 347.6c1.3 1.8.7 4.4-1.2 5.7-1.9 1.3-4.5.9-5.7-.9-1.3-1.8-.7-4.4 1.2-5.7 1.9-1.3 4.4-.9 5.7.9z" fill="url(#aJ)"/><path d="M105.1 365.5c1.3.9 1.4 3 .2 4.6-1.2 1.6-3.2 2.1-4.5 1.2-1.3-.9-1.4-3-.2-4.6 1.2-1.6 3.2-2.1 4.5-1.2z" fill="url(#aK)"/><path d="M185.6 289.9c1.3-1.7 2.2-3 3.2-5.2l.1-.3c-.2-.8-.6-1.4-1.2-2-1.8-1.8-4.7-1.8-6.4-.1-1.7 1.7-1.7 4.6.1 6.4 1.2 1.2 2.7 1.6 4.2 1.2z" fill="url(#aL)"/><path d="M204.2 279.1c2 .9 2.8 3.4 1.8 5.6-1 2.2-3.3 3.4-5.3 2.5-2-.9-2.8-3.4-1.8-5.6.9-2.2 3.3-3.3 5.3-2.5z" fill="url(#aM)"/><path d="M209.7 268.1c1.7.9 2.2 3.1 1.2 5-1 1.9-3.2 2.7-4.8 1.8-1.7-.9-2.2-3.1-1.2-5 .9-1.8 3.1-2.6 4.8-1.8z" fill="url(#aN)"/><path d="M218.8 261.5c.9 1.4.4 3.5-1.2 4.5-1.6 1.1-3.7.8-4.6-.7-.9-1.4-.4-3.5 1.2-4.5 1.6-1.1 3.7-.8 4.6.7z" fill="url(#aO)"/><path d="M229.1 259.4c.1 1.8-1.4 3.2-3.3 3.3-1.9.1-3.4-1.3-3.5-3.1-.1-1.8 1.4-3.2 3.3-3.3 1.9-.1 3.5 1.3 3.5 3.1z" fill="url(#aP)"/><path d="M238.1 261.7c-.6 1.4-2.4 2-4 1.3s-2.3-2.4-1.7-3.8c.6-1.4 2.4-2 4-1.3s2.3 2.4 1.7 3.8z" fill="url(#aQ)"/><path d="M242.8 268.6c-1 .6-2.4-.1-3.1-1.4-.8-1.3-.6-2.9.3-3.4 1-.6 2.4.1 3.1 1.4.8 1.3.7 2.9-.3 3.4z" fill="url(#aR)"/><path d="M243.4 275.5c-.8 0-1.5-1.1-1.5-2.4 0-1.3.6-2.4 1.5-2.4.8 0 1.5 1.1 1.5 2.4 0 1.3-.6 2.4-1.5 2.4z" fill="url(#aS)"/><path d="M90.5 253.4c-.3-.8-.9-1.6-2-2-1.1-.4-2.1-.3-2.9.2 1.6.8 3.2 1.2 4.9 1.8z" fill="url(#aT)"/><path d="M81.8 249.9c.5-1.2.1-2.8-1.2-3.7-1.4-1-3.2-.9-4 .3-.1.1-.1.2-.2.3 1.8 1.2 3.4 2.1 5.4 3.1z" fill="url(#aU)"/><path d="M71.6 243.5c.6.4 1.3.9 1.9 1.4.2-.1.5-.2.7-.4 1.2-1 1.2-3 0-4.3-1.2-1.4-3-1.6-4.2-.6-.6.5-.9 1.2-.9 2 .9.7 1.6 1.2 2.5 1.9z" fill="url(#aV)"/><path d="M64.4 231.5c-1.4.9-1.7 2.9-.8 4.4 1 1.5 2.9 2 4.2 1 1.3-1 1.7-2.9.8-4.4-.9-1.5-2.8-1.9-4.2-1z" fill="url(#aW)"/><path d="M59.8 222.2c-1.6.4-2.6 2.1-2.2 3.9.4 1.8 2 2.9 3.7 2.5 1.6-.4 2.6-2.1 2.2-3.9-.4-1.8-2.1-2.9-3.7-2.5z" fill="url(#aX)"/><path d="M57.5 212.5c-1.7.2-3 1.9-2.8 3.9.2 1.9 1.8 3.2 3.6 3 1.7-.2 3-1.9 2.8-3.9-.2-1.9-1.7-3.2-3.6-3z" fill="url(#aY)"/><path d="M57.1 202.3c1.9 0 3.4 1.6 3.4 3.6s-1.5 3.6-3.3 3.6c-1.9 0-3.4-1.6-3.4-3.6s1.4-3.6 3.3-3.6z" fill="url(#aZ)"/><path d="M59.5 192.9c-1.8-.4-3.6.8-4 2.7-.4 1.8.7 3.8 2.5 4.1 1.8.4 3.6-.8 4-2.7.4-1.8-.7-3.6-2.5-4.1z" fill="url(#ba)"/><path d="M65.1 185.4c-1.4-1-3.4-.7-4.5.8-1.2 1.5-.9 3.6.4 4.6 1.4 1 3.4.7 4.5-.8 1.2-1.4 1-3.5-.4-4.6z" fill="url(#bb)"/><path d="M71.7 178.7c-1-1.4-2.9-1.7-4.4-.7-1.5 1.1-1.8 3.1-.9 4.5 1 1.4 2.9 1.7 4.4.7 1.5-1.1 1.9-3.1.9-4.5z" fill="url(#bc)"/><path d="M80.9 173.2c-.9-1.3-2.8-1.6-4.3-.5s-1.9 3-1 4.3c.9 1.3 2.8 1.6 4.3.5 1.5-1 1.9-3 1-4.3z" fill="url(#bd)"/><path d="M98.8 374.4c1.2.5 1.5 2.3.8 4-.7 1.7-2.2 2.8-3.4 2.3-1.2-.5-1.5-2.3-.8-4 .7-1.7 2.2-2.8 3.4-2.3z" fill="url(#be)"/><path d="M95.2 383.2c1.1.2 1.9 1.7 1.6 3.4-.3 1.7-1.4 2.9-2.6 2.7-1.2-.2-1.9-1.7-1.6-3.4.3-1.7 1.5-2.9 2.6-2.7z" fill="url(#bf)"/><path d="M93.9 392.1c1.2-.1 2.2 1.3 2.3 3 .1 1.7-.8 3.1-1.9 3.2-1.1.1-2.2-1.3-2.3-3-.1-1.7.7-3.1 1.9-3.2z" fill="url(#bg)"/><path d="M94.7 400.6c1.1-.2 2.3 1 2.7 2.6.3 1.7-.3 3.2-1.5 3.4-1.1.2-2.3-1-2.7-2.6-.3-1.6.3-3.2 1.5-3.4z" fill="url(#bh)"/><path d="M96.4 409.1c1.1-.3 2.4.8 2.9 2.4.5 1.7-.1 3.2-1.2 3.5-1.1.3-2.4-.8-2.8-2.4-.5-1.6 0-3.2 1.1-3.5z" fill="url(#bi)"/><path d="M102.1 419.2c-.2-.6-.3-1-.5-1.7-.6-.5-1.4-.8-1.9-.5-1 .4-1.2 2-.6 3.4.7 1.5 2 2.3 2.9 1.9.3-.1.6-.5.8-.8-.2-.7-.5-1.5-.7-2.3z" fill="url(#bj)"/><path d="M114.1 310.5c1.9.2 3.3 2.4 3 4.9-.2 2.5-2 4.4-3.9 4.2-1.9-.2-3.3-2.4-3-4.9.3-2.5 2-4.4 3.9-4.2z" fill="url(#bk)"/><path d="M112.6 323.3c1.9 0 3.5 2 3.5 4.6 0 2.6-1.5 4.6-3.5 4.6-1.9 0-3.5-2-3.5-4.6 0-2.5 1.5-4.5 3.5-4.6z" fill="url(#bl)"/><path d="M111.7 335.7c1.9-.2 3.7 1.6 4.1 4.1.3 2.5-1 4.8-2.9 5-1.9.2-3.7-1.6-4.1-4.1-.4-2.5 1-4.8 2.9-5z" fill="url(#bm)"/><path d="M113.5 348.4c1.9-.4 3.9 1.2 4.4 3.7.5 2.5-.5 4.8-2.4 5.3-1.9.4-3.9-1.2-4.4-3.7-.5-2.5.5-4.9 2.4-5.3z" fill="url(#bn)"/><path d="M116.4 361.3c1.8-.5 3.8.9 4.4 3.2.6 2.3-.3 4.6-2.1 5.1s-3.8-.9-4.4-3.2c-.7-2.3.3-4.6 2.1-5.1z" fill="url(#bo)"/><path d="M120 373.6c1.6-.5 3.4.8 4 2.7.5 2-.3 3.9-2 4.4-1.6.5-3.4-.8-4-2.7-.5-2 .4-4 2-4.4z" fill="url(#bp)"/><path d="M123.6 384.1c1.5-.5 3.3.6 3.9 2.5.6 1.9-.1 3.8-1.6 4.3s-3.3-.6-3.9-2.5c-.6-1.9.1-3.8 1.6-4.3z" fill="url(#bq)"/><path d="M127.2 394c1.2-.7 2.8 0 3.6 1.4.8 1.4.4 3.1-.8 3.7-1.2.7-2.8 0-3.6-1.4-.8-1.4-.5-3.1.8-3.7z" fill="url(#br)"/><path d="M131.6 401.7c1-.6 2.4.1 3.2 1.5.7 1.4.5 2.9-.5 3.5-1 .6-2.4-.1-3.2-1.5-.8-1.4-.5-3 .5-3.5z" fill="url(#bs)"/><path d="M118.2 298.7c1.9.7 2.9 3 2.2 5.2-.7 2.2-2.9 3.5-4.8 2.8-1.9-.7-2.9-3-2.2-5.2.6-2.2 2.8-3.5 4.8-2.8z" fill="url(#bt)"/><path d="M116.9 292.1c.1 1.6.9 2.9 2.2 3.4 1.9.7 4.2-.6 5.1-3 .6-1.8.4-3.6-.6-4.7-2.7 1.8-4.5 2.9-6.7 4.3z" fill="url(#bu)"/><path d="M80.9 285.7c-.3-1.7-2-2.7-4.1-2.6-2.3 0-4.2 1.7-4.2 3.7 0 .8.3 1.4.7 1.9 2.5-1 4.6-1.8 7.6-3z" fill="url(#bv)"/><path d="M69.4 285.8c-.3 1.9-2.4 3.1-4.5 2.8-2.2-.4-3.7-2.2-3.4-4.1.3-1.9 2.4-3.1 4.5-2.8 2.2.3 3.7 2.2 3.4 4.1z" fill="url(#bw)"/><path d="M57.6 282.8c-.8 1.7-3.2 2.2-5.3 1.2-2.1-1-3.1-3.2-2.3-4.9.8-1.7 3.2-2.2 5.3-1.2 2.1 1 3.1 3.2 2.3 4.9z" fill="url(#bx)"/><path d="M45.4 277.1c-.5 1.4-2.5 1.9-4.3 1.2-1.9-.7-2.9-2.4-2.4-3.8s2.5-1.9 4.3-1.2c1.9.7 3 2.4 2.4 3.8z" fill="url(#by)"/><path d="M34.2 272c-2.1.2-4.3.3-6.3 1-.1.2-.1.4-.1.6 0 .3.2.4.3.7 1.3.2 2.6.4 3.8.8.5.2 1.2.3 1.8.5 1.1-.5 1.4-1 1.4-2-.2-.8-.3-1.1-.9-1.6z" fill="url(#bz)"/><path d="M40.5 376.1c-1.1.5-2.4-.2-3-1.6-.6-1.4-.2-2.8.8-3.3s2.4.2 3 1.6c.6 1.4.3 2.8-.8 3.3z" fill="url(#bA)"/><path d="M6.4 15.3l1.9 1.9s5-2.3 6.4-4.1c.9-1.2 1.9-5.6 1.6-9.3 0 0-1.6 5.8-11.3 9.2l1.4 2.3z" fill="url(#bB)" transform="translate(189 127)"/><path d="M14.6 14.1c-3.8.5-6 .7-6 .7l-.3 2.8 1.9 2.7s4-.9 5.8-1.7c1.9-.8 4.2-4.5 4.4-10-.1-.1-1.5 4.9-5.8 5.5z" fill="url(#bC)" transform="translate(189 127)"/><path d="M2.8 14.1l2.4.8 4.7-4.4c.9-.8 2.5-4.1.7-9.6 0 0 .1 4-4.2 6.2C1.4 9.7.7 13 .6 13l2.2 1.1z" fill="url(#bD)" transform="translate(189 127)"/><path d="M190.5 138.5c-7.7-.8-14.7 3.9-15.5 10.4-.6 4.5 1.9 8.8 6 11.3 2.3-1.3 5.3-2.1 8.7-2.1 3 0 5.8.6 8 1.7 2.8-1.9 4.8-4.7 5.2-8 .9-6.5-4.6-12.5-12.4-13.3z" fill="#FFF"/><circle fill="#FFF" cx="145.4" cy="151.3" r="13.3"/><circle fill="#FFF" cx="189" cy="151.3" r="13.3"/><path d="M191.2 143.4c-.2 2.1-1.3 3.9-3.3 4.4-2.1.7-4.3-.7-5.1-2.9-1.8 1.9-2.9 4.7-2.2 7.6.9 4.1 4.8 6.5 8.8 5.4 4-1 6.4-5.4 5.5-9.4-.5-2.5-1.9-4.2-3.7-5.1z" fill="url(#bE)"/><path d="M14.5 15.3l-1.9 1.9s-5-2.3-6.4-4.1c-.9-1.2-1.9-5.6-1.6-9.3 0 0 1.6 5.8 11.3 9.2l-1.4 2.3z" fill="url(#bF)" transform="translate(124 127)"/><path d="M6.4 14.1c3.8.5 6 .7 6 .7l.3 2.8-1.9 2.7s-4-.9-5.8-1.7C3.1 17.8.8 14.1.6 8.6c0-.1 1.5 4.9 5.8 5.5z" fill="url(#bG)" transform="translate(124 127)"/><path d="M18.1 14.1l-2.4.8-4.7-4.4c-.9-.8-2.5-4.1-.7-9.6 0 0-.1 4 4.2 6.2 5 2.6 5.7 5.9 5.8 5.9l-2.2 1.1z" fill="url(#bH)" transform="translate(124 127)"/><path d="M143.9 138.5c7.8-.8 14.8 3.9 15.7 10.4.6 4.5-1.9 8.8-6.1 11.3-2.3-1.3-5.4-2.1-8.8-2.1-3.1 0-5.9.6-8.1 1.7-2.8-1.9-4.8-4.7-5.3-8-.9-6.5 4.8-12.5 12.6-13.3z" fill="#FFF"/><path d="M139.5 148.4c-.8 4.1 1.5 8.4 5.5 9.4 4 1.1 7.9-1.3 8.8-5.4.7-2.8-.3-5.7-2.2-7.6-.8 2.3-3 3.6-5.1 2.9-1.9-.6-3.1-2.4-3.3-4.4-1.8 1-3.2 2.7-3.7 5.1z" fill="url(#bI)"/><path d="M189 134c-4.9 0-9.3 2-12.5 5.1-2.5-.9-5.4-1.5-8.6-1.5-3.6 0-6.9.7-9.7 1.9-3.2-3.4-7.7-5.6-12.9-5.6-9.6 0-17.3 7.5-17.3 16.8s7.7 16.8 17.3 16.8c9.6 0 17.3-7.5 17.3-16.8 0-2.9-.7-5.6-2.1-7.9 2.1-.8 4.6-1.3 7.3-1.3 2.1 0 4.2.3 6 .9-1.5 2.5-2.3 5.3-2.3 8.3 0 9.3 7.7 16.8 17.3 16.8 9.6 0 17.3-7.5 17.3-16.8S198.6 134 189 134zm-43.6 28.8c-6.8 0-12.4-5.4-12.4-12s5.5-12 12.4-12c6.8 0 12.4 5.4 12.4 12s-5.5 12-12.4 12zm43.6 0c-6.8 0-12.4-5.4-12.4-12s5.5-12 12.4-12c6.8 0 12.4 5.4 12.4 12s-5.6 12-12.4 12z" fill="url(#bJ)"/><path d="M138.3 230.2c-23.4 33.9-56.9 15.1-56.9 15.1 23.9 21.4 46.2 4.8 46.2 4.8l11.1-20-.4.1z" fill="url(#bK)"/><path d="M87.6 170.5c-.8 1.4-2.5 1.9-3.7 1.2-1.2-.7-1.5-2.5-.7-3.9s2.5-1.9 3.7-1.2c1.2.7 1.5 2.5.7 3.9z" fill="url(#bL)"/><path d="M91.1 161.8c-.4 1.5-1.7 2.4-3 2.1-1.3-.3-2-1.8-1.7-3.3.4-1.5 1.7-2.4 3-2.1 1.3.3 2 1.8 1.7 3.3z" fill="url(#bM)"/><path d="M69.3 368.4c-.1.4-.1.9-.2 1.3-.2 1.8-.8 3.6-1.6 5.1.2.1.4.2.6.2 1.5.2 2.9-1 3.2-2.9.3-1.9-.5-3.4-2-3.7z" fill="url(#bN)"/><path d="M65.9 382.9c1.5-1.2 1.9-3 1-4.2-.4-.5-.9-.7-1.5-.8-1.2 1.3-2.7 2.6-4.3 3.3-.1.6.1 1.2.5 1.7.9 1.1 2.9 1.1 4.3 0z" fill="url(#bO)"/><path d="M58 383.2c0-.4-.1-.8-.4-1.2-1.6.2-3.1.4-4.8.2-.4 0-.8-.1-1.2-.2-.2.4-.3.8-.3 1.2 0 1.5 1.5 2.7 3.4 2.7 1.8.1 3.3-1.2 3.3-2.7z" fill="url(#bP)"/><path d="M47.6 383.3c.7-.6.9-1.6.7-2.5-1.2-.8-2.2-1.7-3-2.8-.8-.1-1.5.1-2.1.6-1.1 1-1 2.9.2 4.2 1.2 1.4 3.1 1.5 4.2.5z" fill="url(#bQ)"/><path d="M105.5 296s-11.7 33.3 1.8 70.5 23 46.4 27.6 44.6c0 0-5.4-.9-13-17s-18.4-49.1-16.1-68.7c2.3-19.6 5.4-27.2 11.6-36.1l-11.9 6.7z" fill="url(#bR)"/><path d="M156.9 234.7c-.8.9-1.6 1.7-2.4 2.5-2.3 3-4.6 5.9-7.2 8.6-1.8 1.8-3.5 3.7-5.3 5.6-1.5 2-2.9 4-4.2 6.1-4.1 6.4-6.1 14.1-10.3 18.6-3.7 4-8.5 7.3-13.5 9.6-5.6 3.8-12.7 7.3-21 10.5-15.6 6-25.1 6.9-29.6 14.7-3.9 6.8.7 14.7.7 14.7-1.1-15.2 15.2-15.8 26.2-20.9 38.8-15.8 41.6-24.9 41.6-24.9 0-14.2 9.6-26.6 17.2-34.4 3.8-3.9 7.5-8.9 10.3-13-.9.8-1.9 1.6-2.5 2.3z" fill="url(#bS)"/><path d="M193.3 272.5c1.6-3.6 4.6-8.3 7.1-11.2-4.1 2.3-7.9 7.4-9.5 9.7-10-7.2-14.3-16.7-14.3-16.7 1 7.8 4.1 13.3 15.2 22.3.3-1 .6-1.9.9-2.8 0-.1.1-.3.2-.4.2-.4.3-.6.4-.9z" fill="url(#bT)"/><path d="M202.9 356.5c-4.2 1-8.4.5-12-.4-4.1-1.2-9-3.6-10.3-8.3 0 0 0 11.1 12 13.4 3.7.7 6.3 1.4 9 1.1 11-1.6 20.2-19.6 20.2-19.6s-8.3 11.3-18.9 13.8z" fill="url(#bU)"/></g></svg>